<?xml version="1.0" encoding="utf-8" ?>
<svg baseProfile="tiny" height="100%" version="1.2" width="100%" xmlns="http://www.w3.org/2000/svg" xmlns:ev="http://www.w3.org/2001/xml-events" xmlns:xlink="http://www.w3.org/1999/xlink"><defs /><path d="M 430,493 429,494 427,494 428,495 427,496 428,496 429,497 437,497 438,496 440,496 440,494 437,494 436,493 Z" fill="black" stroke="none" /><path d="M 486,491 487,491 489,493 490,493 491,494 492,494 493,495 491,497 484,497 483,496 483,495 485,493 486,493 485,493 484,494 483,494 483,496 484,497 491,497 492,496 493,496 493,494 491,494 490,493 489,493 487,491 Z" fill="black" stroke="none" /><path d="M 478,491 477,492 475,492 477,492 478,491 479,492 479,493 478,494 472,494 471,495 466,495 465,496 462,496 461,495 456,495 455,494 446,494 455,494 456,495 461,495 462,496 465,496 466,495 471,495 472,494 478,494 480,492 481,492 482,491 483,491 482,491 481,492 479,492 Z" fill="black" stroke="none" /><path d="M 432,491 439,491 440,492 442,492 443,491 444,492 446,492 447,491 448,491 449,492 452,492 449,492 448,491 447,491 446,492 444,492 443,491 442,492 440,492 439,491 Z" fill="black" stroke="none" /><path d="M 497,484 498,485 499,484 507,484 Z" fill="black" stroke="none" /><path d="M 397,484 402,484 403,485 403,486 402,487 401,487 402,488 400,490 397,490 395,488 397,486 399,486 397,486 396,487 395,487 395,489 396,489 397,490 401,490 402,489 402,487 403,486 405,488 415,488 416,489 415,490 408,490 408,493 415,493 416,492 415,491 415,490 417,488 418,489 419,489 420,488 422,490 421,491 430,491 423,491 422,490 422,489 421,489 420,488 419,489 418,489 417,488 416,489 415,488 405,488 403,486 403,485 402,484 Z" fill="black" stroke="none" /><path d="M 389,483 389,484 388,485 389,486 391,486 391,483 Z" fill="black" stroke="none" /><path d="M 422,478 422,479 421,480 420,479 419,480 419,481 420,482 420,483 421,483 422,484 424,484 422,484 419,481 420,480 421,480 422,479 423,479 424,480 427,480 428,479 429,479 430,478 429,478 427,480 424,480 Z" fill="black" stroke="none" /><path d="M 530,476 Z" fill="black" stroke="none" /><path d="M 938,473 937,474 937,476 969,476 969,474 968,474 967,473 Z" fill="black" stroke="none" /><path d="M 529,473 528,474 527,474 527,476 526,477 527,476 528,477 528,478 526,480 525,480 524,479 524,478 523,478 522,477 522,476 524,474 525,474 524,474 522,476 522,477 521,478 518,478 517,477 516,478 515,478 515,479 517,477 518,478 521,478 523,480 524,479 525,480 525,481 524,482 522,482 521,481 518,481 517,482 517,484 518,485 517,486 515,486 514,485 513,485 512,484 511,484 510,485 510,486 512,488 510,490 509,490 507,488 505,488 504,489 503,488 495,488 499,488 500,489 499,490 503,490 504,491 504,492 503,493 502,493 501,494 500,494 497,491 496,492 494,492 493,491 491,491 493,491 494,492 497,492 498,493 499,493 500,494 501,494 502,493 503,493 504,492 504,491 503,490 505,488 506,488 507,489 508,489 509,490 511,490 512,489 512,487 511,487 510,486 510,485 511,484 512,484 513,485 514,485 515,486 518,486 518,484 517,483 517,482 518,481 521,481 522,482 524,482 527,479 528,479 528,477 527,476 527,475 528,474 529,474 Z" fill="black" stroke="none" /><path d="M 534,470 534,472 533,473 532,472 533,473 532,474 534,472 Z" fill="black" stroke="none" /><path d="M 375,470 375,472 378,472 380,474 381,474 383,476 383,478 385,478 386,479 386,480 387,481 392,481 394,483 394,484 395,485 394,484 394,482 393,482 392,481 387,481 386,480 386,478 384,478 383,477 383,475 382,475 381,474 380,474 377,471 377,470 Z" fill="black" stroke="none" /><path d="M 369,463 368,464 369,465 369,466 370,467 371,467 370,467 369,466 369,465 368,464 369,463 370,463 371,464 370,463 Z" fill="black" stroke="none" /><path d="M 543,455 543,456 Z" fill="black" stroke="none" /><path d="M 368,453 369,454 Z" fill="black" stroke="none" /><path d="M 524,445 523,446 520,446 518,448 517,448 516,449 514,449 512,451 511,451 510,450 511,451 509,453 505,453 503,455 501,455 500,456 495,456 494,457 494,458 494,457 495,456 501,456 502,455 504,455 506,453 509,453 510,452 511,452 512,451 513,451 513,450 514,449 517,449 518,448 519,448 521,446 523,446 524,447 523,446 Z" fill="black" stroke="none" /><path d="M 366,443 366,455 365,456 365,459 366,459 367,458 368,458 370,460 370,461 371,461 373,463 373,467 374,468 376,468 377,467 379,467 381,469 380,470 381,470 381,469 380,468 380,467 378,467 377,466 377,465 377,466 375,468 373,466 373,463 369,459 369,458 370,457 370,456 370,457 369,458 367,458 366,459 365,458 365,457 366,456 Z" fill="black" stroke="none" /><path d="M 361,442 360,443 360,449 361,450 361,451 362,452 364,452 364,442 Z" fill="black" stroke="none" /><path d="M 1435,439 1434,440 1434,441 1435,442 1452,442 1453,441 1452,441 1451,442 1435,442 1434,441 1434,440 1435,439 1451,439 Z" fill="black" stroke="none" /><path d="M 495,438 494,439 489,439 487,441 486,441 485,442 482,442 481,443 480,443 481,443 482,442 486,442 488,440 489,440 490,439 494,439 Z" fill="black" stroke="none" /><path d="M 1419,436 1418,437 1419,438 1422,438 1422,436 Z" fill="black" stroke="none" /><path d="M 1294,436 1294,438 1299,438 1299,436 Z" fill="black" stroke="none" /><path d="M 1344,433 1343,434 1344,435 1346,435 1346,433 Z" fill="black" stroke="none" /><path d="M 1287,432 1286,433 1286,435 1288,435 1287,435 1286,434 1286,433 1287,432 1288,433 Z" fill="black" stroke="none" /><path d="M 553,431 553,442 548,447 547,446 546,447 546,449 546,448 547,447 548,447 549,446 550,447 550,449 547,452 547,453 546,454 545,454 549,454 550,453 551,454 551,455 549,457 548,456 549,457 549,458 548,459 546,459 545,458 543,458 543,459 544,460 543,461 541,461 541,462 539,464 538,464 537,465 536,465 535,464 533,464 532,465 531,464 532,465 532,466 531,467 530,467 529,468 529,470 529,469 534,464 535,464 536,465 536,467 535,468 534,468 536,468 536,466 538,464 540,464 540,463 542,461 543,461 545,459 548,459 549,458 549,457 551,455 551,453 550,453 549,454 548,454 547,453 550,450 550,445 553,442 Z" fill="black" stroke="none" /><path d="M 472,431 471,432 468,432 467,433 466,433 464,435 460,435 459,436 457,436 454,439 449,439 448,440 447,440 446,441 445,441 444,442 442,442 441,443 439,443 437,445 436,445 435,446 431,446 430,447 429,447 427,449 423,449 421,451 420,451 419,452 418,452 417,453 415,453 417,453 418,452 420,452 421,451 422,451 424,449 427,449 428,448 429,448 430,447 431,447 432,446 435,446 436,445 438,445 440,443 441,443 442,442 445,442 446,441 447,441 448,440 449,440 450,439 454,439 455,438 456,438 458,436 459,436 460,435 464,435 466,433 468,433 469,432 472,432 Z" fill="black" stroke="none" /><path d="M 1190,428 1190,429 1189,430 1190,431 1190,432 1192,432 1192,428 Z" fill="black" stroke="none" /><path d="M 560,426 562,426 563,427 563,428 562,429 561,429 560,428 559,428 558,427 556,427 554,429 553,428 553,427 553,428 552,429 546,429 545,430 544,430 542,432 541,432 540,433 539,433 537,435 534,435 533,436 530,436 527,439 524,439 522,441 521,441 520,442 519,442 518,443 517,443 516,444 515,444 513,446 510,446 508,448 507,448 506,449 502,449 501,450 500,450 498,452 496,452 495,453 491,453 490,454 489,454 488,455 487,455 486,456 482,456 481,457 480,457 478,459 476,459 475,460 474,460 472,462 469,462 468,463 463,463 462,464 461,464 459,466 455,466 454,467 453,467 451,469 448,469 447,470 443,470 442,471 441,471 440,472 439,472 438,473 434,473 433,474 433,476 432,477 434,479 434,480 488,480 490,478 492,478 493,477 494,477 495,476 501,476 502,475 503,475 504,474 505,474 506,473 510,473 512,471 513,471 514,470 515,470 516,469 518,469 519,468 520,468 521,467 522,467 525,464 526,464 528,462 530,462 533,459 534,459 541,452 542,452 542,451 543,450 544,450 544,449 543,449 542,450 542,451 541,452 540,452 533,459 532,459 529,462 527,462 524,465 523,465 521,467 520,467 519,468 518,468 517,469 516,469 515,470 513,470 512,471 511,471 509,473 504,473 501,476 495,476 494,477 492,477 491,478 490,478 488,480 435,480 432,477 433,476 433,475 435,473 439,473 441,471 442,471 443,470 447,470 448,469 452,469 455,466 459,466 460,465 461,465 462,464 463,464 464,463 468,463 469,462 473,462 476,459 479,459 481,457 483,457 484,456 486,456 487,455 489,455 490,454 491,454 492,453 495,453 496,452 499,452 501,450 502,450 503,449 506,449 507,448 509,448 511,446 514,446 516,444 517,444 519,442 521,442 522,441 523,441 524,440 525,440 526,439 527,439 528,438 529,438 531,436 533,436 534,435 538,435 540,433 541,433 542,432 543,432 545,430 546,430 547,429 552,429 553,428 554,429 555,428 556,428 557,427 558,427 559,428 560,428 561,429 560,430 560,431 558,433 556,433 555,432 555,431 555,433 559,433 559,432 560,431 560,430 561,429 562,429 563,428 563,426 Z" fill="black" stroke="none" /><path d="M 1542,424 1541,425 1541,426 1540,427 1541,428 1541,429 1543,429 1543,426 1543,428 1542,429 1540,427 1541,426 1541,425 1542,424 1543,424 Z" fill="black" stroke="none" /><path d="M 483,421 482,422 480,422 479,423 478,423 477,424 476,424 475,425 473,425 472,426 470,426 468,428 466,428 465,429 462,429 461,430 460,430 458,432 455,432 454,433 452,433 450,435 446,435 445,436 444,436 441,439 435,439 433,441 432,441 431,442 428,442 427,443 426,443 425,444 424,444 424,445 423,446 418,446 416,448 415,448 414,449 411,449 410,450 409,450 407,452 406,452 405,453 402,453 401,454 400,454 399,455 398,455 397,456 394,456 392,458 391,458 390,459 389,459 388,460 387,460 389,460 390,459 391,459 393,457 394,457 395,456 397,456 398,455 400,455 401,454 402,454 403,453 405,453 406,452 408,452 411,449 415,449 416,448 417,448 419,446 423,446 425,444 426,444 428,442 432,442 433,441 434,441 435,440 436,440 437,439 441,439 442,438 443,438 446,435 450,435 451,434 452,434 453,433 454,433 455,432 458,432 459,431 460,431 461,430 462,430 463,429 465,429 466,428 468,428 469,427 470,427 471,426 472,426 473,425 476,425 477,424 478,424 480,422 482,422 483,421 486,421 Z" fill="black" stroke="none" /><path d="M 537,419 535,421 534,421 533,422 530,422 528,424 527,424 526,425 524,425 523,426 522,426 521,427 520,427 519,428 518,428 517,429 515,429 514,430 513,430 512,431 511,431 510,432 507,432 506,433 505,433 504,434 503,434 502,435 500,435 499,436 498,436 497,437 498,436 499,436 500,435 503,435 504,434 505,434 506,433 507,433 508,432 511,432 513,430 515,430 516,429 517,429 518,428 520,428 522,426 523,426 524,425 527,425 529,423 530,423 531,422 533,422 534,421 535,421 536,420 537,420 538,421 537,420 538,419 543,419 Z" fill="black" stroke="none" /><path d="M 1363,418 1363,419 1362,420 1363,420 Z" fill="black" stroke="none" /><path d="M 368,418 Z" fill="black" stroke="none" /><path d="M 1265,416 1263,418 1262,417 1262,418 1264,418 1265,417 1266,417 1267,418 1267,419 1268,419 1269,420 1270,420 1271,421 1272,421 1273,422 1273,423 1274,424 1275,424 1276,425 1275,426 1275,428 1279,428 1280,427 1281,427 1282,428 1280,430 1281,431 1285,431 1286,430 1288,430 1291,433 1293,433 1294,434 1302,434 1304,436 1305,436 1306,437 1315,437 1316,438 1318,438 1319,437 1322,437 1323,438 1324,438 1325,437 1326,437 1327,436 1329,436 1331,434 1337,434 1338,435 1337,436 1332,436 1332,438 1333,438 1334,439 1338,439 1339,438 1339,436 1338,435 1340,433 1341,433 1341,432 1343,430 1344,431 1345,430 1348,430 1348,429 1350,427 1352,427 1353,428 1352,429 1351,429 1350,430 1350,432 1352,432 1353,431 1352,431 1351,432 1350,431 1350,430 1351,429 1352,429 1358,423 1358,422 1359,421 1360,421 1361,422 1361,423 1360,424 1361,425 1363,425 1363,424 1366,421 1367,421 1366,421 1365,422 1364,422 1364,423 1362,425 1361,425 1360,424 1362,422 1361,422 1360,421 1358,421 1358,422 1355,425 1355,426 1353,428 1352,427 1350,427 1349,428 1348,428 1348,429 1347,430 1345,430 1344,431 1343,430 1342,431 1341,431 1341,432 1340,433 1339,433 1338,434 1331,434 1330,435 1329,434 1330,435 1329,436 1326,436 1324,438 1323,438 1322,437 1319,437 1318,438 1316,438 1315,437 1307,437 1306,436 1305,436 1304,435 1303,435 1302,434 1295,434 1294,433 1291,433 1289,431 1289,430 1286,430 1285,431 1281,431 1280,430 1282,428 1283,428 1282,427 1280,427 1279,428 1276,428 1275,427 1276,426 1276,424 1274,424 1273,423 1273,422 1272,421 1271,421 1269,419 1268,419 1267,418 1267,417 1268,416 1267,417 1266,416 Z" fill="black" stroke="none" /><path d="M 1719,414 1718,415 1718,417 1718,416 1720,414 1721,415 1721,418 1720,419 1719,419 1721,419 1721,414 Z" fill="black" stroke="none" /><path d="M 1263,413 1263,415 Z" fill="black" stroke="none" /><path d="M 578,412 579,413 578,414 577,414 577,415 579,413 579,412 Z" fill="black" stroke="none" /><path d="M 1104,410 1105,411 Z" fill="black" stroke="none" /><path d="M 1671,409 1672,410 1672,414 1670,416 1670,417 1669,418 1669,419 1670,420 1670,421 1671,422 1671,423 1673,423 1673,419 1675,417 1676,418 1676,424 1674,426 1674,427 1673,428 1673,430 1674,431 1674,432 1676,432 1676,429 1677,428 1677,427 1677,428 1676,429 1676,431 1675,432 1673,430 1673,428 1675,426 1675,425 1676,424 1676,418 1675,417 1674,417 1674,418 1673,419 1673,422 1672,423 1670,421 1670,420 1669,419 1669,418 1671,416 1671,415 1672,414 1672,409 Z" fill="black" stroke="none" /><path d="M 1667,409 1667,412 1669,412 1669,409 Z" fill="black" stroke="none" /><path d="M 585,408 586,409 586,411 584,413 583,413 581,411 582,410 583,410 582,410 581,409 580,409 581,409 582,410 581,411 583,413 583,414 581,416 580,416 580,417 578,419 577,419 575,417 573,417 572,418 572,419 573,420 571,422 570,422 569,421 569,420 567,420 567,422 569,424 567,426 565,424 560,424 564,424 566,426 568,426 569,425 569,424 572,421 573,421 573,420 572,419 572,418 573,417 575,417 576,418 576,419 578,419 585,412 586,412 586,408 Z" fill="black" stroke="none" /><path d="M 1548,407 1548,409 1547,410 1548,411 1550,411 1550,407 Z" fill="black" stroke="none" /><path d="M 478,407 477,408 474,408 473,409 472,409 470,411 469,411 468,412 464,412 462,414 460,414 459,415 456,415 455,416 454,416 451,419 446,419 444,421 442,421 441,422 438,422 437,423 436,423 434,425 432,425 431,426 429,426 428,427 427,427 426,428 425,428 424,429 420,429 417,432 414,432 413,433 411,433 409,435 407,435 406,436 403,436 400,439 397,439 396,440 395,440 393,442 391,442 390,443 389,443 386,446 383,446 386,446 387,445 388,445 391,442 393,442 394,441 395,441 397,439 400,439 401,438 402,438 404,436 406,436 407,435 410,435 412,433 413,433 414,432 417,432 418,431 419,431 421,429 424,429 425,428 427,428 428,427 429,427 430,426 431,426 432,425 435,425 437,423 438,423 439,422 441,422 442,421 445,421 447,419 451,419 452,418 453,418 456,415 461,415 463,413 464,413 465,412 468,412 469,411 471,411 471,410 472,409 473,409 474,408 478,408 479,407 Z" fill="black" stroke="none" /><path d="M 1671,406 1672,407 1672,406 Z" fill="black" stroke="none" /><path d="M 365,405 363,407 364,408 365,408 367,410 367,411 369,413 369,414 368,415 367,414 365,414 365,415 364,416 364,418 366,420 366,432 365,433 364,432 364,421 361,421 361,426 362,427 362,435 363,436 363,439 364,440 365,440 363,438 363,436 366,433 366,422 367,421 368,421 369,420 370,420 370,418 370,419 368,421 367,421 365,419 365,418 364,417 365,416 365,415 366,414 367,415 367,416 368,415 369,416 369,415 370,414 372,414 370,414 369,413 369,412 367,410 367,409 366,409 365,408 364,408 363,407 365,405 367,405 368,406 368,407 369,408 370,408 371,409 371,411 371,408 369,408 368,407 368,406 367,405 Z" fill="black" stroke="none" /><path d="M 1716,404 1715,405 1715,406 1715,405 1716,404 1717,405 1717,408 1717,404 Z" fill="black" stroke="none" /><path d="M 1460,404 1461,404 1462,405 1462,408 1461,409 1460,409 1461,409 1462,408 1462,405 1461,404 Z" fill="black" stroke="none" /><path d="M 1171,403 1170,404 1170,430 1172,430 1172,404 Z" fill="black" stroke="none" /><path d="M 376,402 375,403 371,403 377,403 Z" fill="black" stroke="none" /><path d="M 1253,401 1253,403 1254,403 1256,405 1256,406 1260,410 1258,412 1258,414 1259,415 1260,415 1261,414 1261,413 1261,414 1260,415 1258,413 1260,411 1260,409 1253,402 Z" fill="black" stroke="none" /><path d="M 1071,401 1073,403 1071,405 1071,406 1070,407 1073,404 1073,402 1072,402 Z" fill="black" stroke="none" /><path d="M 490,397 489,398 486,398 485,399 484,399 483,400 482,400 481,401 478,401 477,402 476,402 475,403 474,403 472,405 468,405 465,408 460,408 459,409 458,409 455,412 450,412 447,415 442,415 439,418 438,418 437,419 433,419 432,420 431,420 430,421 429,421 428,422 425,422 424,423 423,423 421,425 418,425 417,426 415,426 413,428 411,428 410,429 408,429 407,430 406,430 404,432 401,432 400,433 398,433 396,435 394,435 393,436 392,436 390,438 389,438 388,439 386,439 384,441 383,441 382,442 381,442 379,444 378,444 376,446 375,446 375,447 376,446 377,446 379,444 380,444 382,442 383,442 385,440 386,440 387,439 389,439 390,438 391,438 394,435 397,435 399,433 400,433 401,432 404,432 405,431 406,431 407,430 408,430 409,429 410,429 411,428 414,428 416,426 417,426 418,425 422,425 424,423 425,423 426,422 428,422 429,421 431,421 432,420 433,420 434,419 437,419 438,418 440,418 441,417 441,416 442,415 447,415 449,413 450,413 451,412 455,412 456,411 457,411 460,408 465,408 466,407 467,407 469,405 472,405 473,404 474,404 475,403 476,403 478,401 482,401 483,400 484,400 486,398 490,398 491,397 Z" fill="black" stroke="none" /><path d="M 390,397 386,401 384,401 387,401 390,398 Z" fill="black" stroke="none" /><path d="M 1667,396 1668,397 1668,398 1669,399 1669,407 1669,398 1668,397 1668,396 Z" fill="black" stroke="none" /><path d="M 351,396 352,397 352,396 Z" fill="black" stroke="none" /><path d="M 1712,395 1712,396 1713,395 1714,396 1714,400 1713,401 1713,402 1712,403 1713,404 1713,408 1714,409 1714,410 1716,412 1716,420 1717,421 1719,421 1720,422 1720,427 1721,427 1723,429 1723,431 1722,432 1722,434 1720,436 1719,436 1718,437 1715,437 1714,438 1690,438 1689,437 1684,437 1683,436 1683,435 1682,435 1679,432 1679,427 1679,433 1680,434 1681,434 1683,436 1683,437 1689,437 1690,438 1714,438 1715,437 1719,437 1720,436 1721,436 1722,435 1722,432 1723,431 1723,429 1720,426 1720,423 1721,422 1722,423 1722,425 1724,427 1722,425 1722,423 1724,421 1725,421 1726,422 1726,426 1726,422 1725,421 1724,421 1723,422 1720,422 1719,421 1718,421 1716,419 1716,411 1713,408 1713,402 1714,401 1714,395 Z" fill="black" stroke="none" /><path d="M 1359,395 1358,396 1359,397 1358,398 1359,397 1360,397 1359,397 1358,396 Z" fill="black" stroke="none" /><path d="M 1357,392 1356,393 1354,393 1357,393 1358,392 1359,392 1363,396 1363,397 1361,399 1361,400 1363,400 1362,400 1361,399 1363,397 1364,398 1365,398 1366,399 1366,404 1367,404 1369,406 1368,407 1368,411 1369,412 1369,413 1368,414 1368,416 1367,417 1366,417 1366,419 1367,419 1366,418 1368,416 1368,414 1369,413 1369,412 1368,411 1368,407 1369,406 1368,405 1368,404 1367,404 1366,403 1366,399 1365,398 1364,398 1363,397 1363,395 1362,395 1360,393 1360,392 Z" fill="black" stroke="none" /><path d="M 340,392 341,393 343,393 344,392 343,393 342,392 Z" fill="black" stroke="none" /><path d="M 1246,391 1244,393 1245,394 1247,394 1247,392 Z" fill="black" stroke="none" /><path d="M 1015,391 1014,392 1006,392 1006,394 1016,394 1007,394 1006,393 1007,392 1014,392 1015,391 1016,391 1017,392 1018,392 1019,393 1019,394 1020,393 1019,392 1017,392 1016,391 Z" fill="black" stroke="none" /><path d="M 1664,389 1664,390 1665,391 1665,397 1663,399 1663,400 1662,401 1662,402 1663,403 1663,404 1664,405 1666,405 1666,403 1667,402 1667,400 1667,402 1666,403 1666,404 1665,405 1662,402 1662,401 1665,398 1665,391 1664,390 Z" fill="black" stroke="none" /><path d="M 1338,388 1337,389 1336,389 1338,389 Z" fill="black" stroke="none" /><path d="M 1299,388 1299,391 1301,391 1301,388 Z" fill="black" stroke="none" /><path d="M 500,387 499,388 496,388 495,389 494,389 493,390 492,390 491,391 489,391 488,392 486,392 485,393 484,393 483,394 480,394 479,395 478,395 477,396 476,396 474,398 471,398 470,399 468,399 466,401 464,401 463,402 460,402 457,405 453,405 452,406 451,406 450,407 449,407 448,408 445,408 444,409 443,409 441,411 440,411 439,412 434,412 431,415 427,415 426,416 425,416 424,417 424,418 423,419 417,419 415,421 414,421 413,422 410,422 409,423 408,423 406,425 404,425 403,426 400,426 398,428 397,428 396,429 394,429 393,430 392,430 390,432 388,432 387,433 386,433 384,435 383,435 382,436 380,436 380,437 379,438 378,438 377,439 376,439 375,440 376,439 378,439 380,437 381,437 383,435 385,435 388,432 390,432 391,431 392,431 393,430 394,430 395,429 396,429 397,428 399,428 401,426 403,426 404,425 407,425 409,423 410,423 411,422 413,422 414,421 416,421 418,419 423,419 426,416 427,416 428,415 431,415 432,414 433,414 434,413 435,413 436,412 439,412 440,411 442,411 445,408 449,408 450,407 451,407 452,406 453,406 454,405 457,405 458,404 459,404 461,402 463,402 464,401 467,401 469,399 470,399 471,398 475,398 477,396 478,396 480,394 484,394 485,393 486,393 487,392 488,392 489,391 492,391 493,390 494,390 496,388 499,388 500,387 501,387 Z" fill="black" stroke="none" /><path d="M 1136,386 1136,387 1137,387 Z" fill="black" stroke="none" /><path d="M 1088,386 1088,389 1090,389 1090,386 Z" fill="black" stroke="none" /><path d="M 1338,384 1335,387 1332,387 1331,388 1330,388 1330,391 1333,391 1334,392 1334,393 1333,394 1329,394 1327,392 1326,392 1325,391 1324,392 1322,392 1321,391 1320,391 1319,392 1313,392 1312,391 1307,391 1306,392 1305,392 1305,394 1310,394 1311,395 1312,394 1319,394 1320,395 1321,394 1326,394 1327,393 1328,393 1329,394 1326,397 1310,397 1326,397 1327,396 1328,396 1328,395 1329,394 1333,394 1334,393 1334,391 1331,391 1330,390 1330,389 1332,387 1336,387 1336,386 1338,384 1341,387 1345,387 1346,386 1347,387 1348,387 1349,386 1352,389 1354,389 1355,388 1356,389 1356,390 1356,388 1354,388 1353,389 1352,389 1351,388 1351,387 1350,387 1349,386 1348,387 1347,387 1346,386 1345,387 1341,387 Z" fill="black" stroke="none" /><path d="M 593,382 589,386 588,386 585,389 584,389 583,390 582,390 579,393 578,393 576,395 575,395 573,397 572,397 570,399 568,399 565,402 563,402 562,403 561,403 561,404 560,405 557,405 555,407 554,407 553,408 552,408 551,409 550,409 549,410 548,410 546,412 544,412 546,412 547,411 548,411 550,409 552,409 553,408 554,408 555,407 556,407 558,405 560,405 562,403 563,403 564,402 565,402 566,401 567,401 569,399 570,399 571,398 572,398 573,397 574,397 577,394 578,394 579,393 580,393 583,390 584,390 586,388 587,388 590,385 591,385 592,384 592,383 593,382 594,382 Z" fill="black" stroke="none" /><path d="M 1344,381 1343,382 1342,382 1342,384 1346,384 1346,382 1345,381 Z" fill="black" stroke="none" /><path d="M 1657,380 1657,381 1656,382 1656,383 1657,384 1657,385 1659,385 1659,381 1659,384 1658,385 1656,383 1656,382 1657,381 Z" fill="black" stroke="none" /><path d="M 1558,380 1558,384 1560,384 1560,380 Z" fill="black" stroke="none" /><path d="M 384,380 383,381 382,381 381,382 380,382 379,381 379,382 378,383 378,385 379,385 379,384 378,383 379,382 381,382 382,383 382,384 383,384 384,385 384,386 385,386 386,387 387,387 388,388 390,388 391,389 392,389 393,390 394,390 395,391 396,391 397,392 400,392 397,392 395,390 393,390 391,388 388,388 386,386 385,386 381,382 382,381 384,381 385,382 386,382 Z" fill="black" stroke="none" /><path d="M 1133,379 1133,383 Z" fill="black" stroke="none" /><path d="M 1610,377 1611,377 1612,378 1612,380 1611,381 1611,382 1612,381 1612,378 1611,377 Z" fill="black" stroke="none" /><path d="M 1284,377 1285,377 1286,378 1286,381 1287,382 1287,383 1289,383 1290,384 1290,387 1291,387 1292,386 1292,385 1293,384 1294,384 1296,386 1294,388 1294,389 1295,390 1296,390 1297,391 1297,393 1298,393 1299,394 1302,394 1305,397 1308,397 1305,397 1303,395 1303,394 1299,394 1297,392 1297,391 1296,390 1295,390 1294,389 1294,388 1295,387 1296,387 1296,385 1295,385 1294,384 1293,384 1292,385 1292,386 1291,387 1290,386 1290,384 1291,383 1291,378 1290,378 1291,379 1291,383 1290,384 1289,383 1289,380 1287,378 1286,378 1285,377 Z" fill="black" stroke="none" /><path d="M 1706,376 1704,378 1706,376 1708,378 1708,379 1706,381 1705,381 1707,381 1708,380 1708,378 Z" fill="black" stroke="none" /><path d="M 588,375 589,376 588,377 587,377 586,378 586,379 585,380 583,380 582,381 581,381 577,385 575,385 574,386 573,386 571,388 569,388 566,391 565,391 564,392 561,392 559,394 555,394 554,395 555,394 559,394 560,393 561,393 562,392 564,392 565,391 567,391 568,392 567,391 570,388 571,388 572,387 573,387 574,386 575,386 576,387 575,386 576,385 577,385 578,384 579,384 579,383 580,382 581,382 582,381 583,381 584,380 585,380 586,379 588,381 584,385 583,385 582,386 581,386 581,387 580,388 578,388 577,389 576,389 573,392 571,392 569,394 568,394 567,395 566,395 565,396 564,396 562,398 560,398 559,399 558,399 556,401 555,401 554,402 553,402 552,403 550,403 548,405 545,405 546,406 547,406 548,405 549,405 551,403 552,403 553,402 555,402 556,401 557,401 559,399 560,399 561,398 563,398 565,396 566,396 568,394 570,394 572,392 573,392 574,391 575,391 577,389 578,389 579,388 580,388 582,386 583,386 585,384 586,384 587,383 587,382 588,381 590,381 593,378 595,378 592,378 589,381 588,381 586,379 588,377 589,377 589,376 Z" fill="black" stroke="none" /><path d="M 1416,374 1417,375 1417,379 1417,375 Z" fill="black" stroke="none" /><path d="M 1132,373 1132,376 Z" fill="black" stroke="none" /><path d="M 381,372 381,373 377,377 376,377 375,378 375,380 374,381 374,383 373,384 372,384 373,384 375,386 375,387 380,392 381,392 382,393 383,393 384,394 387,394 388,395 390,395 388,395 387,394 385,394 384,393 383,393 382,392 381,392 378,389 377,389 376,388 376,387 374,385 374,382 375,381 375,379 377,377 378,377 381,374 Z" fill="black" stroke="none" /><path d="M 438,371 437,372 436,372 434,374 431,374 430,375 429,375 426,378 422,378 420,380 419,380 418,381 417,381 416,382 415,382 414,383 413,383 412,384 411,384 410,385 407,385 407,386 408,385 410,385 411,384 413,384 415,382 417,382 418,381 419,381 420,380 421,380 423,378 426,378 427,377 428,377 431,374 434,374 435,373 436,373 437,372 438,372 439,371 443,371 Z" fill="black" stroke="none" /><path d="M 1286,370 1285,371 1285,375 1285,371 1286,370 1287,370 1288,371 1288,376 1288,371 1287,370 Z" fill="black" stroke="none" /><path d="M 1657,369 1657,370 1658,371 1658,372 1657,373 1656,373 1656,376 1656,374 1657,373 1658,374 1658,376 1659,377 1659,379 1660,379 1662,381 1662,388 1661,389 1661,390 1660,391 1660,394 1663,394 1663,393 1662,394 1661,394 1660,393 1660,392 1661,391 1661,389 1662,388 1662,381 1661,380 1661,379 1660,379 1659,378 1659,377 1658,376 1658,370 Z" fill="black" stroke="none" /><path d="M 1133,369 1132,370 1132,371 1132,370 1133,369 1134,370 1134,374 1135,375 1135,376 1134,377 1135,377 1135,374 1134,373 1134,370 Z" fill="black" stroke="none" /><path d="M 1702,368 1703,368 1704,369 1704,370 1703,371 1703,372 1704,371 1704,368 Z" fill="black" stroke="none" /><path d="M 316,368 Z" fill="black" stroke="none" /><path d="M 1613,367 1612,368 1612,371 1613,372 1615,372 1615,371 1616,370 1616,368 1615,367 Z" fill="black" stroke="none" /><path d="M 389,364 388,365 387,365 386,366 385,366 384,367 383,367 382,368 381,368 380,369 380,370 379,371 376,371 372,375 371,375 367,379 366,379 365,380 365,381 364,382 364,383 362,385 362,387 364,389 364,390 367,393 368,393 369,394 370,394 371,395 372,395 373,396 374,396 375,397 376,397 377,398 381,398 382,399 383,398 384,399 383,398 382,399 381,398 377,398 375,396 374,396 373,395 371,395 370,394 369,394 367,392 366,392 365,391 365,390 364,389 364,388 363,388 362,387 362,386 364,384 364,383 365,382 365,381 367,379 368,379 374,373 375,373 377,371 379,371 383,367 385,367 386,366 387,366 388,365 389,365 390,364 392,364 Z" fill="black" stroke="none" /><path d="M 1565,363 1565,366 1567,368 1567,374 1566,375 1565,375 1564,374 1564,371 1561,371 1561,372 1560,373 1560,375 1561,376 1561,377 1563,379 1563,385 1561,387 1560,387 1559,388 1560,389 1560,392 1559,393 1558,393 1557,392 1557,390 1556,389 1555,390 1555,391 1554,392 1554,394 1556,396 1556,402 1555,403 1554,403 1553,402 1552,402 1551,401 1551,400 1552,399 1553,400 1553,399 1551,399 1551,401 1552,402 1553,402 1554,403 1552,405 1552,406 1553,407 1553,412 1551,414 1550,414 1548,416 1544,416 1544,417 1543,418 1543,419 1544,420 1544,421 1546,423 1546,433 1547,434 1549,434 1551,436 1552,436 1553,437 1554,437 1555,438 1556,437 1557,438 1558,438 1559,437 1577,437 1578,438 1579,438 1580,437 1584,437 1585,436 1586,436 1586,434 1590,430 1590,424 1591,423 1592,424 1592,428 1595,428 1595,423 1593,421 1593,416 1594,415 1595,416 1595,417 1596,418 1596,419 1598,419 1598,418 1599,417 1599,415 1598,414 1598,412 1597,411 1597,410 1599,408 1600,409 1601,409 1602,408 1602,406 1599,406 1599,408 1598,409 1597,408 1597,405 1600,402 1600,396 1601,395 1602,396 1602,398 1603,399 1605,399 1605,398 1606,397 1606,395 1604,395 1603,394 1603,392 1605,390 1606,391 1608,391 1608,387 1607,387 1606,386 1607,385 1607,377 1609,375 1610,375 1611,374 1610,373 1610,367 1611,366 1610,367 1610,373 1611,374 1610,375 1608,375 1608,376 1607,377 1607,384 1604,387 1604,390 1603,391 1603,394 1604,395 1605,395 1606,396 1606,397 1604,399 1602,397 1602,396 1601,395 1600,395 1600,402 1599,403 1598,403 1597,404 1597,408 1598,409 1597,410 1597,412 1598,413 1598,414 1599,415 1599,417 1597,419 1595,417 1595,416 1594,415 1595,414 1594,414 1594,415 1593,416 1593,421 1592,422 1591,422 1591,423 1590,424 1590,429 1589,430 1589,431 1588,432 1587,432 1586,433 1586,435 1585,436 1584,436 1583,437 1580,437 1579,438 1578,438 1577,437 1559,437 1558,438 1557,438 1556,437 1555,438 1553,436 1552,436 1551,435 1550,435 1549,434 1548,434 1546,432 1546,422 1543,419 1543,418 1545,416 1546,416 1547,417 1547,420 1547,417 1548,416 1549,417 1549,420 1549,416 1553,412 1553,407 1552,406 1552,405 1554,403 1555,403 1556,402 1556,395 1554,393 1555,392 1555,390 1556,389 1557,390 1557,392 1558,393 1559,393 1560,392 1560,389 1559,388 1560,387 1562,387 1562,386 1563,385 1563,379 1562,378 1562,377 1560,375 1560,373 1562,371 1563,371 1564,372 1564,374 1565,375 1566,375 1567,374 1567,368 1565,366 1565,364 1566,363 1568,365 1568,366 1568,365 1567,364 1567,363 Z" fill="black" stroke="none" /><path d="M 930,363 930,365 Z" fill="black" stroke="none" /><path d="M 928,363 927,364 927,430 930,430 930,427 930,429 929,430 928,430 927,429 927,364 Z" fill="black" stroke="none" /><path d="M 459,363 458,364 456,364 455,365 454,365 452,367 448,367 447,368 446,368 445,369 444,369 446,369 448,367 453,367 455,365 456,365 457,364 459,364 Z" fill="black" stroke="none" /><path d="M 1654,359 1654,360 Z" fill="black" stroke="none" /><path d="M 1614,355 1614,364 1613,365 1614,365 1614,356 1615,355 Z" fill="black" stroke="none" /><path d="M 314,355 315,356 315,357 315,355 Z" fill="black" stroke="none" /><path d="M 1130,354 1130,356 1129,357 1129,366 1130,367 1130,379 1130,367 1129,366 1129,357 1130,356 Z" fill="black" stroke="none" /><path d="M 1647,353 1647,354 1646,355 1647,356 1649,356 1649,355 1648,356 1647,356 1646,355 1647,354 Z" fill="black" stroke="none" /><path d="M 1243,353 1243,378 1244,378 1246,380 1246,389 1247,389 1249,391 1249,396 1250,397 1248,399 1248,401 1250,401 1251,400 1250,401 1249,401 1248,400 1250,398 1250,396 1249,395 1249,391 1246,388 1246,380 1243,377 Z" fill="black" stroke="none" /><path d="M 425,353 424,354 421,354 420,355 419,355 418,356 416,356 415,357 412,357 410,359 409,359 407,361 405,361 403,363 401,363 400,364 398,364 397,365 396,365 394,367 391,367 388,370 387,370 386,371 385,371 384,372 383,372 385,374 385,376 389,380 390,380 391,381 391,382 391,381 388,378 387,378 386,377 386,376 385,375 385,374 384,373 386,371 387,371 388,370 389,370 390,369 390,368 391,367 395,367 398,364 401,364 402,363 403,363 404,362 405,362 406,361 408,361 410,359 411,359 412,358 413,358 414,357 417,357 419,355 420,355 421,354 424,354 425,353 427,353 Z" fill="black" stroke="none" /><path d="M 1695,350 1696,350 1697,351 1697,352 1696,353 1695,353 1697,353 1697,350 Z" fill="black" stroke="none" /><path d="M 1620,350 1621,350 1622,351 1622,352 1621,353 1620,353 1622,353 1622,350 Z" fill="black" stroke="none" /><path d="M 1233,349 1235,351 1235,431 1236,432 1235,433 1235,434 1232,437 1230,437 1229,436 1228,437 1198,437 1195,434 1195,430 1195,434 1196,435 1196,436 1197,436 1198,437 1232,437 1233,436 1234,436 1234,435 1235,434 1235,433 1236,432 1235,431 1235,351 Z" fill="black" stroke="none" /><path d="M 1191,345 1191,349 1192,350 1192,351 1195,354 1195,427 1195,353 1192,350 1192,349 1191,348 Z" fill="black" stroke="none" /><path d="M 1084,345 1082,347 1083,348 1082,349 1082,352 1083,353 1083,356 1084,357 1084,359 1083,360 1083,368 1084,369 1083,370 1083,371 1082,372 1082,376 1083,377 1083,379 1084,380 1085,380 1086,379 1086,378 1087,377 1087,371 1086,370 1086,358 1086,368 1085,369 1084,369 1083,368 1083,360 1084,359 1084,356 1083,355 1083,353 1082,352 1082,349 1083,348 1085,348 1086,349 1086,350 1087,351 1087,355 1087,351 1086,350 1086,346 1085,345 Z" fill="black" stroke="none" /><path d="M 1644,344 1643,345 1643,347 1644,348 1645,348 1644,348 1643,347 1643,345 1644,344 1645,344 Z" fill="black" stroke="none" /><path d="M 880,343 879,344 880,345 880,346 879,347 879,429 880,430 882,430 882,344 881,343 Z" fill="black" stroke="none" /><path d="M 1235,342 1235,343 1234,344 1234,345 1235,346 1235,348 1237,350 1237,430 1238,431 1238,432 1240,432 1241,431 1241,390 1244,387 1244,382 1241,379 1241,352 1240,351 1240,350 1239,349 1239,348 1237,346 1238,345 1237,344 1237,342 Z" fill="black" stroke="none" /><path d="M 1186,342 1188,342 Z" fill="black" stroke="none" /><path d="M 930,342 928,344 928,348 929,349 929,350 930,350 931,349 932,349 932,347 931,346 931,345 931,347 932,348 930,350 928,348 928,344 930,342 931,342 932,343 933,343 934,344 933,343 932,343 931,342 Z" fill="black" stroke="none" /><path d="M 615,340 613,342 613,347 617,347 617,342 Z" fill="black" stroke="none" /><path d="M 1625,339 1625,343 1624,344 1623,343 1623,341 1623,344 1625,344 Z" fill="black" stroke="none" /><path d="M 1242,339 1241,340 1241,343 1242,344 1243,344 1244,343 1244,341 1244,343 1243,344 1242,344 1241,343 1241,340 1242,339 1243,339 Z" fill="black" stroke="none" /><path d="M 1688,338 1688,340 1689,341 1689,345 1690,346 1691,346 1692,347 1692,354 1693,355 1693,356 1694,356 1695,357 1695,358 1696,359 1696,364 1698,366 1698,367 1700,369 1699,370 1699,371 1700,372 1700,373 1702,375 1702,380 1703,381 1703,382 1706,385 1706,393 1708,393 1710,395 1709,396 1709,398 1710,399 1710,400 1711,399 1710,399 1709,398 1709,396 1710,395 1709,394 1709,392 1711,390 1711,385 1709,385 1708,386 1708,390 1708,387 1710,385 1711,386 1711,390 1708,393 1707,393 1706,392 1706,384 1705,383 1704,383 1703,382 1703,381 1702,380 1702,374 1699,371 1699,370 1700,369 1699,368 1699,367 1698,366 1701,363 1701,360 1700,360 1699,359 1698,360 1698,362 1697,363 1696,362 1696,359 1695,358 1695,356 1694,356 1692,354 1692,347 1693,346 1694,346 1694,341 1693,341 1692,340 1691,341 1691,345 1690,346 1689,345 1689,341 1688,340 Z" fill="black" stroke="none" /><path d="M 1293,338 1293,339 1294,340 1293,339 1294,338 1296,338 Z" fill="black" stroke="none" /><path d="M 459,338 458,339 461,339 462,340 467,340 469,342 470,342 471,343 472,343 473,344 479,344 481,346 483,346 484,347 485,347 486,346 487,347 493,347 494,348 494,349 494,348 496,346 497,347 500,347 501,346 503,346 501,346 500,347 497,347 496,346 495,347 487,347 486,346 485,347 484,347 483,346 482,346 480,344 473,344 472,343 471,343 470,342 469,342 467,340 463,340 462,339 460,339 Z" fill="black" stroke="none" /><path d="M 1179,337 1178,338 1178,339 1179,340 1180,340 1184,344 1185,344 1186,345 1186,347 1187,348 1189,348 1189,346 1189,347 1188,348 1186,346 1186,344 1185,344 1183,342 1184,341 1184,340 1185,339 1182,339 1183,339 1184,340 1184,341 1183,342 1182,341 1181,341 1180,340 1179,340 1178,339 1178,338 1179,337 1180,337 Z" fill="black" stroke="none" /><path d="M 1088,336 1088,339 1090,339 1090,336 Z" fill="black" stroke="none" /><path d="M 307,336 307,337 306,338 307,339 307,348 306,349 307,350 307,353 309,353 309,352 310,351 310,337 309,336 Z" fill="black" stroke="none" /><path d="M 1179,335 1181,335 Z" fill="black" stroke="none" /><path d="M 1228,334 Z" fill="black" stroke="none" /><path d="M 995,334 996,335 994,337 993,337 991,335 987,335 990,335 992,337 995,337 996,336 997,336 996,335 997,334 Z" fill="black" stroke="none" /><path d="M 608,334 608,338 609,338 608,337 Z" fill="black" stroke="none" /><path d="M 1300,333 1300,334 1299,335 1298,335 1299,336 1298,337 1299,338 1298,339 1298,340 1296,342 1295,342 1293,344 1292,343 1292,342 1292,343 1293,344 1291,346 1291,347 1290,348 1289,347 1289,346 1287,346 1286,347 1286,350 1288,352 1288,356 1287,357 1286,357 1285,356 1285,353 1285,356 1284,357 1283,356 1283,353 1283,356 1284,357 1283,358 1283,359 1284,360 1284,366 1283,367 1283,375 1283,367 1284,366 1284,360 1283,359 1283,358 1285,356 1286,357 1288,357 1288,351 1286,349 1286,347 1287,346 1288,346 1289,347 1289,348 1291,348 1291,347 1299,339 1299,336 1300,335 Z" fill="black" stroke="none" /><path d="M 610,333 610,335 612,337 612,338 611,339 611,348 614,351 614,353 615,354 615,355 614,356 614,359 612,361 612,362 611,363 611,371 610,372 611,372 612,373 611,374 610,374 610,376 609,377 608,376 608,373 608,376 609,377 608,378 608,380 607,381 606,381 605,382 605,383 604,384 604,385 603,386 602,386 602,387 600,389 598,389 598,390 596,392 591,392 589,394 588,394 583,399 582,399 580,401 579,401 578,402 577,402 573,406 572,406 571,407 570,407 569,408 568,408 567,409 566,409 564,411 563,411 562,412 561,412 560,413 559,413 558,414 557,414 556,415 555,415 554,416 553,416 550,419 547,419 545,421 544,421 543,422 540,422 538,424 537,424 536,425 534,425 533,426 532,426 530,428 528,428 527,429 526,429 525,430 524,430 523,431 522,431 521,432 519,432 518,433 517,433 516,434 515,434 514,435 512,435 511,436 509,436 507,438 506,438 505,439 501,439 499,441 497,441 496,442 495,442 494,443 492,443 491,444 490,444 488,446 483,446 481,448 479,448 478,449 475,449 473,451 472,451 471,452 469,452 468,453 465,453 464,454 463,454 462,455 461,455 460,456 456,456 454,458 453,458 452,459 448,459 447,460 446,460 444,462 441,462 440,463 437,463 435,465 433,465 432,466 428,466 426,468 425,468 424,469 422,469 421,470 418,470 417,471 416,471 416,472 415,473 410,473 408,475 407,475 406,476 403,476 402,475 401,475 402,476 407,476 408,475 409,475 409,474 410,473 415,473 418,470 421,470 422,469 425,469 426,468 427,468 427,467 428,466 433,466 434,465 436,465 436,464 437,463 440,463 441,462 444,462 445,461 446,461 448,459 453,459 454,458 455,458 455,457 456,456 460,456 461,455 463,455 464,454 465,454 466,453 468,453 469,452 472,452 473,451 474,451 474,450 475,449 479,449 480,448 482,448 484,446 488,446 489,445 490,445 491,444 492,444 493,443 494,443 495,442 497,442 498,441 500,441 502,439 506,439 507,438 508,438 510,436 511,436 512,435 515,435 516,434 517,434 519,432 522,432 523,431 524,431 525,430 526,430 528,428 531,428 534,425 537,425 538,424 539,424 541,422 543,422 544,421 546,421 548,419 550,419 551,418 552,418 554,416 555,416 556,415 557,415 558,414 559,414 561,412 563,412 564,411 565,411 568,408 570,408 571,407 572,407 574,405 575,405 578,402 579,402 580,401 581,401 583,399 584,399 587,396 587,395 588,394 590,394 592,392 597,392 598,391 598,390 599,389 600,389 601,390 603,390 604,389 605,390 605,391 600,396 600,397 599,398 598,398 597,399 596,399 595,398 596,397 596,396 594,396 594,397 596,399 596,400 595,401 594,401 593,400 592,400 591,401 591,402 587,406 585,406 588,406 588,405 590,403 591,403 591,401 592,400 593,401 595,401 598,398 599,398 603,394 603,393 605,391 605,390 604,389 605,388 604,388 602,390 601,389 601,388 603,386 604,386 604,384 605,383 606,383 607,384 609,384 609,381 608,380 608,378 609,377 610,377 611,378 613,378 613,375 612,374 612,373 611,372 611,371 612,370 613,370 614,371 616,371 617,370 617,365 616,364 613,364 613,369 612,370 611,369 611,363 614,360 614,356 615,355 615,354 614,353 614,350 613,350 611,348 611,339 613,337 613,334 612,333 Z" fill="black" stroke="none" /><path d="M 1688,332 1688,333 1689,332 1690,333 1690,335 1689,336 1690,336 1690,332 Z" fill="black" stroke="none" /><path d="M 1644,332 1644,334 1645,335 1645,341 1646,341 1648,343 1647,344 1647,346 1648,347 1648,351 1649,352 1650,352 1651,353 1651,356 1652,357 1652,359 1650,361 1650,362 1649,363 1649,365 1650,366 1652,366 1652,364 1653,363 1654,363 1655,364 1655,366 1654,367 1654,368 1655,369 1655,370 1654,371 1654,372 1653,373 1654,374 1654,376 1654,374 1653,373 1655,371 1655,368 1654,367 1655,366 1655,364 1654,363 1653,363 1652,364 1652,365 1651,366 1650,366 1649,365 1649,363 1651,361 1651,360 1652,359 1652,357 1651,356 1651,353 1648,350 1648,347 1647,346 1647,344 1648,343 1645,340 1645,334 1644,333 Z" fill="black" stroke="none" /><path d="M 1231,332 1231,333 1230,334 1230,335 1232,337 1232,338 1231,339 1232,340 1232,346 1232,337 1233,336 1233,332 Z" fill="black" stroke="none" /><path d="M 1356,331 1354,333 1354,334 1357,331 Z" fill="black" stroke="none" /><path d="M 315,331 Z" fill="black" stroke="none" /><path d="M 1313,330 1312,331 1312,332 1313,333 1322,333 1322,331 1321,330 Z" fill="black" stroke="none" /><path d="M 1246,330 1244,332 1244,335 1245,336 1245,338 1246,339 1246,344 1244,346 1243,346 1243,350 1243,347 1246,344 1246,339 1245,338 1245,336 1244,335 1244,332 1246,330 1247,331 1247,334 1249,334 1249,331 1249,333 1248,334 1247,333 1247,331 Z" fill="black" stroke="none" /><path d="M 1416,329 1416,371 Z" fill="black" stroke="none" /><path d="M 726,329 726,333 726,330 727,329 729,331 729,332 728,333 729,334 729,336 728,337 727,337 726,336 726,335 726,337 728,337 729,336 729,334 728,333 729,332 729,331 728,330 728,329 Z" fill="black" stroke="none" /><path d="M 1359,328 1360,328 Z" fill="black" stroke="none" /><path d="M 1311,328 1310,329 1309,329 1309,331 1308,332 1307,331 1306,331 1305,332 1302,332 1303,332 1304,333 1303,334 1302,334 1302,336 1302,335 1303,334 1304,335 1304,336 1304,333 1306,331 1307,331 1308,332 1309,331 1309,330 1311,328 1323,328 1325,330 1325,331 1327,331 1328,332 1330,332 1331,333 1330,334 1329,334 1329,336 1329,335 1332,332 1329,332 1328,331 1326,331 1323,328 Z" fill="black" stroke="none" /><path d="M 1158,328 1157,329 1156,329 1154,331 1152,331 1151,332 1146,332 1145,333 1143,333 1145,333 1146,332 1149,332 1150,333 1149,334 1147,334 1148,334 1149,335 1147,337 1146,336 1145,336 1144,335 1142,335 1141,336 1141,337 1140,338 1138,338 1136,340 1136,341 1135,342 1134,342 1134,343 1133,344 1133,345 1134,346 1133,347 1132,347 1131,348 1131,349 1130,350 1130,352 1130,350 1131,349 1132,350 1132,355 1134,355 1134,352 1135,351 1134,350 1134,349 1137,346 1138,346 1138,345 1139,344 1139,343 1141,341 1142,341 1143,340 1143,338 1143,339 1139,343 1139,344 1134,349 1134,354 1133,355 1132,354 1132,350 1131,349 1131,348 1132,347 1133,347 1134,346 1133,345 1133,344 1135,342 1136,342 1136,341 1139,338 1141,338 1141,336 1142,335 1143,335 1144,336 1145,336 1146,337 1147,337 1148,336 1149,336 1149,334 1152,331 1154,331 1155,330 1156,330 1158,328 1159,328 1160,329 1164,329 1165,328 1166,328 1168,330 1168,331 1171,331 1172,332 1172,336 1173,337 1174,337 1175,336 1177,336 1176,335 1177,334 1173,334 1172,333 1173,332 1176,332 1172,332 1171,331 1169,331 1166,328 1165,328 1164,329 1160,329 1159,328 Z" fill="black" stroke="none" /><path d="M 1004,328 1002,330 1002,331 1001,332 1000,331 999,331 998,332 994,332 998,332 999,331 1000,331 1001,332 1002,331 1005,331 1007,329 1008,330 1008,331 1011,331 1012,332 1013,331 1015,331 1016,332 1019,332 1020,333 1019,334 1018,334 1017,335 1016,334 1015,334 1015,336 1019,336 1020,337 1021,337 1023,339 1023,340 1026,340 1028,342 1028,343 1029,344 1032,344 1030,344 1026,340 1024,340 1021,337 1023,335 1026,335 1027,336 1027,337 1028,338 1029,338 1031,340 1031,341 1032,341 1035,344 1035,345 1033,347 1033,348 1032,349 1033,350 1033,351 1035,351 1037,349 1038,350 1038,352 1037,353 1038,354 1038,355 1039,355 1041,357 1041,369 1038,372 1038,378 1037,379 1037,380 1037,379 1038,378 1038,373 1040,371 1041,372 1041,373 1041,372 1040,371 1040,370 1041,369 1041,357 1037,353 1038,352 1038,350 1037,349 1036,349 1036,350 1035,351 1034,351 1032,349 1034,347 1034,346 1035,345 1035,344 1034,343 1034,342 1033,342 1029,338 1028,338 1027,337 1027,336 1026,335 1022,335 1022,336 1021,337 1020,336 1018,336 1017,335 1018,334 1020,334 1020,332 1016,332 1015,331 1013,331 1012,332 1011,331 1009,331 1008,330 1008,329 1006,329 1005,328 Z" fill="black" stroke="none" /><path d="M 1579,327 1579,328 1578,329 1579,330 1579,331 1580,332 1580,341 1578,343 1577,343 1576,342 1576,341 1574,339 1574,338 1577,335 1578,336 1578,339 1578,336 1577,335 1576,336 1575,336 1575,337 1574,338 1574,339 1576,341 1576,342 1577,343 1577,349 1574,352 1573,351 1573,350 1572,349 1572,345 1573,344 1575,346 1575,348 1575,345 1574,344 1572,344 1572,350 1574,352 1574,353 1573,354 1574,355 1574,357 1572,359 1571,359 1570,358 1571,357 1571,355 1570,354 1568,356 1568,357 1569,358 1570,358 1571,359 1570,360 1570,365 1570,361 1572,359 1573,359 1573,358 1574,357 1574,355 1573,354 1574,353 1574,352 1575,351 1576,351 1576,350 1577,349 1577,344 1578,343 1579,343 1579,342 1580,341 1580,332 1579,331 1580,330 1581,330 1581,327 Z" fill="black" stroke="none" /><path d="M 1460,323 1460,324 Z" fill="black" stroke="none" /><path d="M 604,322 604,324 604,323 605,322 606,323 606,325 605,326 605,327 606,328 606,329 608,327 609,328 609,329 608,330 608,331 607,332 606,332 605,331 604,331 605,331 606,332 608,332 608,331 609,330 609,327 607,327 606,328 605,327 605,326 606,325 606,322 Z" fill="black" stroke="none" /><path d="M 1635,320 1634,321 1634,322 1633,323 1633,324 1631,326 1630,325 1630,326 1632,326 1632,325 1633,324 1633,323 1636,320 Z" fill="black" stroke="none" /><path d="M 1460,319 1459,320 1460,319 1461,319 1462,320 1462,323 1462,320 1461,319 Z" fill="black" stroke="none" /><path d="M 1582,318 1582,320 1581,321 1582,322 1582,323 1584,325 1584,330 1582,332 1583,333 1582,334 1583,333 1583,331 1584,330 1584,325 1585,324 1586,324 1586,323 1584,325 1583,324 1583,323 1581,321 1582,320 1582,319 1583,318 1585,320 1585,321 1585,319 1584,318 Z" fill="black" stroke="none" /><path d="M 1631,315 1630,316 1630,318 1629,319 1628,319 1628,322 1627,323 1627,325 1628,326 1626,328 1624,328 1624,337 1623,338 1622,338 1622,339 1621,340 1621,345 1620,346 1620,347 1619,348 1618,348 1618,349 1617,350 1617,352 1618,353 1618,354 1617,355 1617,357 1619,359 1619,362 1618,363 1617,363 1616,362 1616,359 1616,363 1619,363 1619,359 1617,357 1617,355 1618,354 1618,353 1617,352 1617,350 1619,348 1620,348 1620,346 1621,345 1621,340 1624,337 1624,329 1625,328 1627,328 1628,329 1628,330 1629,331 1629,333 1628,334 1627,334 1626,333 1626,334 1629,334 1629,330 1627,328 1627,327 1628,326 1627,325 1627,323 1628,322 1628,321 1630,319 1630,317 1631,316 1632,317 1632,319 1632,317 1631,316 Z" fill="black" stroke="none" /><path d="M 1635,313 1635,314 1636,315 1636,318 1636,316 1637,315 1638,316 1638,322 1636,324 1636,325 1635,326 1637,328 1637,330 1637,329 1638,328 1639,329 1639,325 1640,324 1641,325 1641,332 1639,334 1639,337 1640,338 1642,338 1642,337 1641,338 1639,336 1639,335 1641,333 1641,332 1642,331 1641,330 1641,324 1640,323 1639,323 1638,322 1638,315 1636,315 1635,314 Z" fill="black" stroke="none" /><path d="M 537,312 539,312 545,318 543,320 541,318 540,318 539,317 540,316 539,317 538,316 537,316 536,317 535,317 536,317 537,316 538,316 542,320 543,320 545,318 547,320 545,318 545,317 543,315 542,315 541,314 541,313 540,313 539,312 Z" fill="black" stroke="none" /><path d="M 520,312 519,313 518,313 517,314 516,314 514,316 513,316 512,317 510,317 509,318 508,318 507,319 506,319 505,320 502,320 500,322 499,322 498,323 496,323 495,324 494,324 493,325 492,325 491,326 490,326 489,327 487,327 486,328 485,328 483,330 478,330 475,333 472,333 471,334 469,334 468,335 467,335 465,337 464,337 466,337 468,335 469,335 470,334 471,334 472,333 476,333 479,330 484,330 487,327 489,327 490,326 492,326 493,325 494,325 496,323 499,323 500,322 501,322 503,320 505,320 506,319 508,319 509,318 510,318 511,317 512,317 513,316 514,316 515,315 516,315 518,313 519,313 520,312 521,312 Z" fill="black" stroke="none" /><path d="M 1632,311 1631,312 1631,313 1632,313 1632,312 1633,311 Z" fill="black" stroke="none" /><path d="M 1105,310 1105,313 1107,315 1107,316 1105,318 1103,318 1103,320 1101,322 1100,321 1100,320 1098,320 1098,322 1097,323 1096,323 1095,324 1094,324 1094,326 1096,328 1096,330 1095,331 1094,331 1092,333 1091,332 1091,331 1092,330 1091,331 1091,333 1093,335 1093,337 1092,338 1092,341 1090,343 1090,345 1089,346 1089,357 1088,358 1088,369 1089,370 1089,381 1090,382 1091,382 1093,384 1093,386 1092,387 1092,388 1093,389 1093,392 1094,392 1096,394 1096,397 1094,399 1094,401 1095,402 1096,402 1098,400 1099,400 1100,401 1100,403 1099,404 1099,405 1098,406 1098,408 1099,408 1098,407 1098,406 1099,405 1100,405 1102,407 1102,408 1101,409 1101,412 1103,412 1104,413 1104,414 1105,415 1107,415 1108,414 1109,414 1110,415 1110,416 1113,419 1113,420 1115,420 1117,422 1117,423 1119,423 1120,424 1121,424 1124,427 1128,427 1130,429 1130,430 1135,430 1137,432 1137,433 1138,433 1139,434 1149,434 1150,435 1150,436 1151,436 1152,437 1153,437 1154,438 1156,438 1157,437 1166,437 1167,436 1167,432 1168,431 1168,429 1167,428 1167,404 1168,403 1168,402 1167,401 1167,397 1165,397 1164,396 1163,397 1152,397 1151,396 1151,395 1152,394 1153,395 1155,395 1156,394 1163,394 1163,392 1157,392 1156,391 1152,391 1151,392 1150,392 1148,394 1145,394 1144,393 1144,391 1143,390 1142,390 1141,389 1141,388 1143,386 1139,382 1139,381 1138,381 1137,380 1136,380 1135,381 1135,382 1135,381 1136,380 1137,380 1139,382 1139,383 1138,384 1139,383 1140,384 1141,384 1143,386 1141,388 1141,390 1143,390 1144,391 1144,392 1143,393 1144,394 1149,394 1150,393 1151,394 1151,396 1152,397 1163,397 1164,396 1165,397 1166,397 1167,398 1167,401 1168,402 1168,403 1167,404 1167,428 1168,429 1168,431 1167,432 1167,435 1165,437 1157,437 1156,438 1155,438 1154,437 1152,437 1150,435 1150,434 1140,434 1139,433 1138,433 1137,432 1137,431 1136,431 1135,430 1131,430 1130,429 1130,428 1129,428 1128,427 1125,427 1123,425 1122,425 1120,423 1118,423 1117,422 1117,421 1116,420 1114,420 1112,418 1112,417 1110,415 1110,414 1107,414 1106,415 1103,412 1102,412 1101,411 1101,409 1102,408 1102,403 1101,403 1100,402 1100,401 1099,400 1099,399 1098,400 1097,399 1097,397 1096,396 1096,394 1095,393 1095,392 1094,392 1093,391 1093,389 1092,388 1092,387 1093,386 1093,384 1092,383 1092,382 1090,382 1089,381 1089,370 1088,369 1088,358 1089,357 1089,347 1090,346 1090,344 1092,342 1092,338 1093,337 1093,335 1092,334 1092,333 1094,331 1095,331 1096,330 1096,329 1097,328 1099,328 1099,325 1100,324 1099,323 1100,322 1102,322 1102,321 1103,320 1103,319 1104,318 1106,318 1106,317 1107,316 1107,315 1106,314 1109,311 1110,312 1110,313 1109,314 1109,315 1109,314 1110,313 1110,312 1111,311 1112,311 1111,311 1110,310 1108,312 1107,311 1107,310 Z" fill="black" stroke="none" /><path d="M 1586,309 1585,310 1585,312 1586,313 1587,313 1586,313 1585,312 1585,310 1586,309 1587,309 1588,310 1588,311 1588,310 1587,309 Z" fill="black" stroke="none" /><path d="M 1061,309 1066,314 1066,315 1065,316 1064,315 1062,315 1061,314 1062,313 1061,312 1062,313 1061,314 1061,315 1063,315 1065,317 1065,321 1066,321 1069,324 1070,324 1071,325 1071,326 1072,327 1071,328 1071,330 1072,331 1072,332 1073,331 1074,331 1076,333 1076,334 1075,335 1075,338 1076,339 1076,342 1077,342 1078,343 1078,358 1079,359 1079,366 1078,367 1078,385 1077,386 1076,386 1076,387 1075,388 1075,392 1074,393 1072,393 1072,396 1071,397 1071,398 1070,399 1069,399 1069,400 1068,401 1068,406 1067,407 1065,407 1065,409 1064,410 1063,410 1060,413 1059,413 1058,414 1058,415 1056,417 1056,419 1055,420 1053,420 1052,421 1051,421 1051,422 1046,427 1042,427 1041,428 1040,427 1041,428 1039,430 1037,430 1036,431 1035,431 1035,432 1033,434 1032,434 1031,433 1030,434 1022,434 1021,435 1020,435 1018,437 1003,437 1001,435 1001,398 1002,397 1014,397 1015,396 1021,396 1021,395 1022,394 1023,394 1024,393 1024,392 1022,390 1022,389 1023,388 1024,388 1025,389 1026,389 1027,390 1029,390 1030,389 1030,388 1031,387 1032,387 1033,386 1034,386 1034,385 1035,384 1035,380 1035,384 1034,385 1033,384 1033,382 1032,382 1031,381 1032,380 1032,377 1034,375 1035,375 1033,375 1033,376 1032,377 1032,380 1031,381 1030,381 1029,382 1029,383 1026,386 1029,383 1031,385 1032,384 1033,384 1034,385 1032,387 1031,387 1030,388 1030,389 1029,390 1028,390 1027,389 1026,389 1025,388 1023,388 1022,389 1022,390 1024,392 1024,393 1023,394 1022,394 1020,396 1015,396 1014,397 1001,397 1001,436 1002,437 1018,437 1019,436 1020,436 1022,434 1030,434 1031,433 1033,435 1036,435 1034,435 1033,434 1035,432 1036,433 1037,433 1036,433 1035,432 1037,430 1039,430 1040,429 1043,429 1044,430 1043,431 1041,431 1044,431 1044,429 1043,429 1042,428 1043,427 1046,427 1047,426 1048,426 1048,425 1050,423 1051,423 1051,422 1053,420 1055,420 1056,421 1057,421 1056,421 1055,420 1056,419 1057,419 1056,418 1058,416 1058,415 1060,413 1061,413 1061,412 1063,410 1065,410 1065,408 1066,407 1067,407 1068,406 1068,401 1070,399 1071,399 1071,397 1072,396 1072,394 1073,393 1074,393 1075,394 1075,395 1076,396 1076,397 1075,398 1074,397 1074,398 1076,398 1076,395 1074,393 1075,392 1075,388 1078,385 1078,367 1079,366 1079,359 1078,358 1078,342 1079,341 1079,340 1080,339 1080,337 1079,336 1078,336 1079,336 1080,337 1080,339 1079,340 1077,338 1076,338 1075,337 1075,335 1076,334 1076,329 1074,329 1074,330 1073,331 1072,331 1071,330 1071,328 1073,326 1072,326 1071,325 1072,324 1073,324 1069,324 1068,323 1068,322 1067,322 1065,320 1065,317 1066,316 1066,313 1065,313 1063,311 1063,310 1062,310 Z" fill="black" stroke="none" /><path d="M 328,303 327,304 329,306 330,305 329,304 329,303 Z" fill="black" stroke="none" /><path d="M 1675,302 1675,308 1676,309 1676,311 1677,311 1678,312 1678,317 1681,320 1681,321 1682,322 1682,327 1683,328 1683,329 1684,329 1685,330 1685,335 1686,336 1686,337 1686,336 1685,335 1685,329 1684,329 1682,327 1682,323 1683,322 1684,323 1684,326 1685,327 1687,327 1687,322 1682,322 1681,321 1683,319 1683,313 1682,314 1681,313 1681,317 1680,318 1679,318 1678,317 1678,312 1680,310 1680,305 1677,305 1679,305 1680,306 1680,309 1679,310 1679,311 1678,312 1676,310 1676,308 1677,307 1676,308 1675,307 Z" fill="black" stroke="none" /><path d="M 1207,302 1207,303 1206,304 1205,304 1205,305 1206,304 1207,304 1208,303 1209,303 1210,304 1210,307 1209,308 1208,307 1208,308 1209,308 1211,306 1213,308 1212,309 1212,311 1213,311 1215,313 1215,314 1217,314 1218,313 1220,315 1220,316 1221,317 1221,319 1222,320 1221,321 1221,323 1222,323 1225,326 1225,327 1229,327 1230,328 1230,329 1229,330 1229,332 1229,331 1230,330 1230,327 1226,327 1225,326 1225,325 1224,324 1225,323 1226,323 1226,320 1225,320 1226,321 1226,322 1224,324 1223,324 1221,322 1221,321 1222,320 1222,319 1221,318 1221,317 1220,316 1220,314 1219,313 1218,313 1216,311 1216,310 1215,310 1214,311 1213,311 1212,310 1213,309 1213,307 1212,307 1210,305 1210,303 1208,303 Z" fill="black" stroke="none" /><path d="M 1274,301 1276,301 Z" fill="black" stroke="none" /><path d="M 1273,299 1271,301 1272,302 1272,303 1270,305 1270,306 1268,308 1266,308 1266,309 1265,310 1265,311 1264,312 1263,312 1263,313 1261,315 1260,315 1257,318 1256,318 1256,319 1254,321 1253,320 1251,320 1251,323 1253,325 1253,326 1252,327 1251,327 1250,328 1249,328 1249,329 1251,327 1253,327 1253,325 1252,324 1252,323 1251,322 1251,321 1252,320 1253,320 1254,321 1255,321 1255,320 1258,317 1259,318 1259,316 1260,315 1261,315 1265,311 1265,310 1267,308 1269,308 1269,307 1270,306 1270,305 1271,304 1272,304 1272,302 1271,301 1273,299 1275,299 Z" fill="black" stroke="none" /><path d="M 457,299 456,300 455,300 453,302 452,302 451,303 448,303 446,305 445,305 444,306 441,306 440,307 439,307 437,309 436,309 435,310 431,310 429,312 428,312 427,313 424,313 423,314 422,314 420,316 418,316 417,317 415,317 414,318 413,318 412,319 411,319 410,320 407,320 404,323 401,323 400,324 399,324 398,325 397,325 396,326 395,326 394,327 392,327 390,329 389,329 388,330 384,330 384,331 383,332 382,332 381,333 380,333 379,334 377,334 375,336 374,336 373,337 371,337 369,339 368,339 367,340 366,340 365,341 364,341 362,343 361,343 360,344 358,344 355,347 353,347 350,350 349,350 348,351 347,351 345,353 344,353 342,355 341,355 338,358 337,358 333,362 333,363 331,365 331,366 330,367 330,371 329,372 330,373 330,376 329,377 329,378 328,379 327,379 326,378 326,377 325,376 325,375 326,374 326,373 326,374 325,375 325,376 326,377 326,378 325,379 324,378 323,378 322,377 322,369 321,369 319,367 319,366 318,366 317,365 316,365 315,364 315,360 315,364 314,365 317,365 319,367 319,369 317,371 316,371 315,370 314,370 313,369 313,368 314,367 313,368 313,369 314,370 315,370 317,372 317,374 318,375 319,375 320,374 320,372 320,374 319,375 318,375 317,374 317,372 318,371 318,370 320,368 322,370 322,377 323,378 324,378 326,380 324,382 324,384 326,384 327,383 328,383 329,384 329,386 334,386 335,387 335,388 336,389 337,389 338,390 338,394 340,396 340,397 341,398 344,398 346,396 347,396 348,397 347,398 347,399 348,400 348,401 351,401 351,400 352,399 357,399 358,400 357,401 356,401 355,402 354,402 354,405 357,405 358,404 359,404 360,403 361,403 362,404 363,404 364,403 368,403 370,405 370,406 372,406 373,407 373,410 373,407 372,406 371,406 368,403 364,403 363,404 362,404 359,401 359,400 358,400 357,399 351,399 350,398 349,398 348,397 348,396 347,396 346,395 346,393 346,394 345,395 344,395 345,395 346,396 344,398 341,398 340,397 340,396 338,394 338,390 335,387 335,386 330,386 329,385 329,383 328,383 327,382 326,382 325,381 327,379 329,379 330,378 329,377 330,376 330,367 333,364 333,363 339,357 340,357 342,355 343,355 345,353 346,353 348,351 349,351 350,350 351,350 354,347 356,347 359,344 361,344 362,343 363,343 366,340 368,340 369,339 370,339 372,337 374,337 375,336 376,336 378,334 379,334 380,333 382,333 383,332 384,332 386,330 389,330 390,329 391,329 393,327 394,327 395,326 397,326 398,325 399,325 401,323 404,323 405,322 406,322 407,321 408,321 409,320 410,320 411,319 413,319 414,318 415,318 416,317 417,317 418,316 421,316 424,313 427,313 428,312 430,312 432,310 435,310 436,309 438,309 441,306 444,306 445,305 447,305 447,304 448,303 451,303 452,302 454,302 456,300 457,300 458,299 Z" fill="black" stroke="none" /><path d="M 1280,298 1280,299 1279,300 1278,300 1277,299 1278,300 1279,300 1281,298 1282,298 Z" fill="black" stroke="none" /><path d="M 541,298 540,299 537,299 535,301 535,302 537,304 538,304 540,306 542,306 543,307 544,307 552,315 552,318 546,324 545,324 544,325 542,325 541,324 541,323 540,323 536,319 535,319 536,319 537,320 537,321 538,322 539,322 542,325 542,326 539,329 538,329 537,330 535,330 534,331 533,331 532,332 531,332 529,334 527,334 525,336 524,336 523,337 521,337 520,338 519,338 518,339 517,339 516,340 515,340 514,341 513,341 512,342 511,342 509,344 504,344 509,344 510,343 511,343 512,342 513,342 514,341 515,341 516,340 517,340 518,339 519,339 520,338 521,338 522,337 523,337 524,336 526,336 528,334 529,334 530,333 531,333 532,332 533,332 534,331 535,331 536,330 538,330 540,328 541,328 544,325 545,325 546,324 547,324 552,319 552,315 551,314 551,313 545,307 544,307 543,306 541,306 539,304 538,304 535,301 536,300 537,300 538,299 543,299 545,301 546,301 548,303 553,303 555,305 556,305 562,311 562,316 554,324 553,324 550,327 549,327 546,330 544,330 543,329 544,330 542,332 541,332 539,334 537,334 535,336 534,336 533,337 531,337 530,338 529,338 527,340 524,340 521,343 520,343 519,344 517,344 519,344 520,343 522,343 523,342 523,341 524,340 528,340 530,338 531,338 532,337 534,337 535,336 536,336 538,334 539,334 540,333 541,333 542,332 543,332 545,330 547,330 551,326 552,326 554,324 555,324 562,317 562,310 557,305 556,305 554,303 548,303 545,300 544,300 543,299 542,299 Z" fill="black" stroke="none" /><path d="M 333,298 332,299 333,298 335,298 Z" fill="black" stroke="none" /><path d="M 1676,297 1676,300 Z" fill="black" stroke="none" /><path d="M 1460,297 1461,297 1462,298 1462,299 1461,300 1460,300 1459,299 1460,300 1461,300 1462,299 1462,297 Z" fill="black" stroke="none" /><path d="M 1277,297 Z" fill="black" stroke="none" /><path d="M 1275,297 Z" fill="black" stroke="none" /><path d="M 968,297 968,299 968,298 969,297 970,297 971,298 970,299 970,300 969,301 967,301 966,302 966,303 964,305 962,305 961,304 960,304 959,303 957,305 959,303 960,304 961,304 962,305 962,306 961,307 960,307 959,308 957,308 956,307 954,307 954,308 955,307 956,307 957,308 956,309 956,311 955,312 954,311 954,310 951,310 950,311 950,312 949,313 948,313 947,314 947,315 945,317 944,317 944,319 945,319 946,320 946,323 944,325 943,325 943,327 942,328 942,330 940,332 939,332 938,331 938,330 937,329 940,326 939,327 938,327 938,328 937,329 938,330 938,331 939,332 939,337 937,339 936,339 936,347 935,348 936,349 936,351 934,353 933,353 933,355 932,356 932,467 933,468 933,470 934,471 972,471 972,465 973,464 973,463 972,462 972,454 973,453 973,438 972,437 972,430 973,429 973,401 972,400 972,372 973,371 973,369 972,368 972,366 973,365 973,364 972,363 972,361 973,360 973,359 972,358 972,357 976,353 977,354 977,466 976,467 975,466 975,467 977,467 977,354 976,353 976,347 978,345 979,345 979,344 981,342 982,343 982,344 984,344 985,343 985,342 987,340 989,340 989,337 987,337 986,338 983,338 982,339 982,341 981,342 980,342 980,343 978,345 977,345 977,346 976,347 976,353 975,354 974,354 973,355 973,356 972,357 972,358 973,359 973,360 972,361 972,363 973,364 973,365 972,366 972,368 973,369 973,371 972,372 972,400 973,401 973,429 972,430 972,437 973,438 973,453 972,454 972,462 973,463 973,464 972,465 972,470 971,471 935,471 933,469 933,467 932,466 932,357 933,356 933,354 934,353 935,353 936,354 935,355 936,354 936,353 935,352 936,351 936,349 935,348 936,347 936,340 937,339 938,339 939,340 938,339 939,338 939,333 941,331 942,331 942,328 943,327 943,326 944,325 945,325 945,324 946,323 946,322 948,320 948,319 949,318 949,317 951,315 953,315 952,315 950,313 950,312 952,310 953,310 954,311 954,313 955,312 956,312 956,310 958,308 960,308 961,307 962,307 962,306 963,305 964,305 968,301 973,301 971,301 970,300 972,298 975,298 972,298 971,297 Z" fill="black" stroke="none" /><path d="M 1355,296 1354,297 1355,296 1356,297 1356,298 1355,299 1354,299 1355,299 1356,298 1357,299 1357,300 1356,301 1354,301 1356,301 1357,302 1356,301 1357,300 1359,300 1360,301 1359,302 1359,305 1360,305 1362,307 1362,308 1364,308 1365,309 1365,311 1366,311 1368,313 1368,319 1369,320 1368,321 1367,321 1366,322 1366,325 1365,326 1364,326 1363,325 1361,325 1361,326 1363,328 1360,331 1359,330 1360,331 1355,336 1351,336 1351,337 1350,338 1349,338 1348,339 1347,339 1347,341 1346,342 1345,341 1344,341 1343,342 1342,341 1342,339 1341,339 1340,338 1339,338 1338,337 1338,336 1336,336 1335,335 1333,335 1331,337 1333,335 1335,335 1336,336 1337,336 1338,337 1338,338 1340,338 1342,340 1342,341 1343,342 1344,341 1345,341 1346,342 1347,341 1347,340 1349,338 1351,338 1351,337 1352,336 1356,336 1356,335 1358,333 1359,333 1363,329 1363,328 1365,326 1366,326 1366,322 1367,321 1368,321 1369,320 1368,319 1368,312 1367,312 1365,310 1365,308 1363,308 1361,306 1361,305 1360,305 1359,304 1359,303 1360,302 1360,300 1358,300 1356,298 1356,297 Z" fill="black" stroke="none" /><path d="M 548,294 547,295 544,295 543,296 544,295 547,295 Z" fill="black" stroke="none" /><path d="M 1347,293 1345,295 1342,295 1345,295 1346,294 1347,294 1348,293 1349,294 1349,295 1348,296 1349,296 1350,297 1349,298 1348,298 1349,298 1350,297 1352,299 1349,296 1349,293 Z" fill="black" stroke="none" /><path d="M 1282,293 1282,295 1284,295 1284,293 Z" fill="black" stroke="none" /><path d="M 1593,292 1592,293 1592,295 1594,295 1593,295 1592,294 1592,293 1593,292 1594,292 1595,293 1594,292 Z" fill="black" stroke="none" /><path d="M 976,292 975,293 975,296 976,296 975,295 975,294 976,293 978,293 977,292 Z" fill="black" stroke="none" /><path d="M 340,292 339,293 338,293 337,294 338,295 339,295 339,293 Z" fill="black" stroke="none" /><path d="M 1297,291 1296,292 1295,292 1296,292 1297,291 1335,291 1337,293 1337,294 1338,294 1339,295 1340,295 1339,295 1337,293 1337,292 1336,292 1335,291 Z" fill="black" stroke="none" /><path d="M 991,291 990,292 987,292 987,293 985,295 979,295 978,296 978,297 980,295 985,295 986,294 987,294 987,293 988,292 991,292 992,291 1023,291 1024,292 1027,292 1028,293 1028,294 1029,295 1034,295 1035,296 1035,297 1035,295 1036,294 1037,294 1038,295 1038,296 1037,297 1039,297 1041,299 1041,300 1042,300 1043,301 1047,301 1049,303 1048,304 1049,304 1052,307 1053,307 1054,308 1057,308 1058,309 1058,310 1059,311 1059,312 1059,311 1058,310 1058,309 1057,308 1058,307 1057,307 1056,308 1054,308 1053,307 1052,307 1051,306 1051,305 1050,305 1049,304 1049,303 1048,302 1048,301 1043,301 1041,299 1041,298 1040,298 1038,296 1038,294 1036,294 1035,295 1029,295 1028,294 1028,293 1027,292 1024,292 1023,291 Z" fill="black" stroke="none" /><path d="M 1159,290 1158,291 1142,291 1138,295 1134,295 1133,294 1132,294 1131,293 1128,293 1129,294 1128,295 1129,296 1129,297 1128,298 1127,298 1127,299 1125,301 1122,301 1121,300 1119,300 1119,302 1120,303 1118,305 1117,305 1117,306 1115,308 1112,308 1111,307 1108,307 1108,308 1109,307 1110,307 1112,309 1113,308 1115,308 1119,304 1120,304 1120,303 1119,302 1119,301 1120,300 1121,300 1122,301 1125,301 1126,300 1127,300 1127,299 1128,298 1129,298 1129,294 1130,293 1131,294 1133,294 1134,295 1138,295 1139,294 1140,294 1140,293 1142,291 1158,291 1159,290 1160,291 1182,291 1184,293 1184,294 1185,294 1186,295 1191,295 1192,296 1192,297 1193,298 1195,298 1196,297 1198,299 1198,300 1199,301 1200,300 1201,301 1203,301 1204,302 1204,301 1201,301 1200,300 1199,301 1198,300 1198,299 1197,298 1199,296 1200,297 1200,298 1200,297 1199,296 1198,297 1196,297 1195,298 1193,298 1192,297 1192,296 1193,295 1194,295 1195,294 1196,294 1195,293 1192,293 1190,295 1186,295 1182,291 1160,291 Z" fill="black" stroke="none" /><path d="M 1342,289 1341,290 1340,290 1340,292 1343,292 1341,292 1340,291 1342,289 1343,290 1344,290 1343,290 Z" fill="black" stroke="none" /><path d="M 1290,289 1289,290 1289,292 1292,292 1293,293 1291,295 1290,295 1289,294 1288,294 1287,295 1287,296 1285,298 1287,296 1287,295 1288,294 1289,294 1290,295 1291,295 1292,294 1293,294 1293,293 1292,292 1290,292 1289,291 1289,290 1290,289 1292,289 1293,290 1292,289 Z" fill="black" stroke="none" /><path d="M 810,289 809,290 808,290 808,291 807,292 806,292 805,291 771,291 770,292 769,292 769,293 767,295 762,295 762,296 760,298 755,298 755,299 753,301 752,301 752,302 751,303 751,304 750,305 746,305 745,304 743,304 743,306 744,306 745,307 745,310 743,312 741,312 741,313 740,314 739,314 738,315 738,317 737,318 736,318 735,317 736,318 735,319 735,322 732,325 732,327 731,328 731,337 729,339 729,340 728,341 728,349 727,350 727,426 728,427 728,433 729,434 730,434 733,437 754,437 755,438 761,438 762,437 763,437 764,436 766,436 768,434 768,432 769,431 769,428 768,427 768,343 771,340 771,339 772,338 772,337 773,336 775,336 772,336 772,338 771,339 771,340 768,343 768,427 769,428 769,431 768,432 768,433 765,436 763,436 761,438 755,438 754,437 734,437 731,434 730,434 728,432 728,427 727,426 727,350 728,349 728,341 729,340 729,339 730,338 731,338 731,328 732,327 732,326 734,324 734,323 735,322 735,320 737,318 738,319 738,321 738,319 737,318 738,317 738,315 739,314 740,314 742,312 743,312 745,310 745,308 746,307 747,308 746,307 746,306 747,305 750,305 751,304 751,303 756,298 760,298 763,295 767,295 768,294 769,294 769,293 771,291 805,291 808,294 809,294 810,295 812,295 813,294 814,294 816,296 816,297 817,298 819,298 820,299 820,300 821,300 825,304 825,305 827,305 827,303 829,301 832,301 833,300 833,299 835,297 837,297 837,296 839,294 840,295 844,295 846,293 847,294 848,293 848,292 849,291 882,291 884,293 884,294 885,294 886,295 890,295 893,298 897,298 898,299 898,300 899,300 902,303 902,305 905,305 908,308 908,309 909,310 909,311 910,312 911,312 912,313 912,314 913,314 915,316 915,317 916,318 916,319 917,319 919,321 919,322 918,323 919,324 919,328 921,328 922,329 922,336 923,337 923,339 924,340 924,341 925,342 925,431 922,434 922,435 920,437 888,437 885,434 885,343 883,341 882,341 881,340 881,337 880,336 879,336 877,334 877,333 876,332 873,332 871,330 871,329 868,329 867,328 862,328 861,329 860,329 860,330 858,332 854,332 854,334 852,336 850,336 850,337 849,338 848,338 846,340 846,343 847,344 846,345 846,428 847,429 847,430 846,431 847,432 844,435 844,436 843,437 814,437 813,436 812,437 811,437 806,432 806,342 805,341 805,340 803,338 803,337 802,336 802,335 801,335 800,336 798,336 797,335 798,334 798,332 795,332 793,330 793,329 792,329 791,328 784,328 783,329 782,329 780,331 779,331 778,332 777,332 777,333 776,334 778,336 777,337 778,337 778,336 777,335 777,333 779,331 781,331 784,328 791,328 793,330 793,331 794,331 795,332 797,332 798,333 797,334 797,336 800,336 801,335 803,337 803,338 804,339 804,340 806,342 806,433 807,434 808,434 809,435 809,436 810,437 812,437 813,436 814,437 843,437 846,434 846,433 847,432 846,431 847,430 847,429 846,428 846,345 847,344 846,343 846,340 848,338 850,338 850,337 851,336 852,337 855,337 856,336 857,336 857,334 856,334 857,335 855,337 853,337 852,336 854,334 854,333 855,332 858,332 859,331 860,331 860,330 862,328 867,328 868,329 870,329 871,330 871,331 872,331 873,332 876,332 877,333 877,334 879,336 880,336 881,337 881,341 883,341 885,343 885,435 887,437 921,437 921,436 925,432 925,341 924,340 924,339 923,338 923,337 924,336 925,336 926,337 927,336 927,334 926,333 925,333 924,332 924,336 923,337 922,336 922,329 921,328 921,326 920,325 921,324 921,322 921,324 920,325 918,323 919,322 919,321 918,320 918,319 917,319 915,317 915,315 914,315 912,313 912,312 910,312 909,311 909,310 908,309 908,307 907,306 906,306 905,305 903,305 902,304 902,303 901,302 901,301 900,301 897,298 893,298 891,296 891,295 886,295 884,293 884,292 883,292 882,291 849,291 848,292 846,292 843,289 842,289 841,290 841,292 843,292 842,292 841,291 841,290 842,289 843,289 846,292 843,295 840,295 839,294 838,294 837,293 838,294 837,295 837,296 836,297 835,297 831,301 829,301 828,302 827,302 827,304 826,305 825,304 825,303 823,301 824,300 825,300 826,299 828,299 825,299 823,301 822,301 820,299 820,298 819,297 818,298 817,298 816,297 816,296 814,294 813,294 812,295 810,295 809,294 808,294 807,293 807,292 810,289 812,291 811,292 810,292 812,292 812,290 811,290 Z" fill="black" stroke="none" /><path d="M 553,288 553,289 Z" fill="black" stroke="none" /><path d="M 1419,287 1419,288 1418,289 1417,289 1416,290 1416,291 1455,291 1457,293 1457,327 1456,328 1449,328 1448,329 1447,328 1439,328 1438,329 1435,329 1434,328 1420,328 1419,329 1418,329 1418,331 1419,332 1419,369 1418,370 1418,373 1419,374 1419,375 1420,376 1420,379 1419,380 1419,387 1420,388 1420,389 1421,390 1422,390 1423,391 1423,392 1425,394 1426,394 1427,393 1427,392 1425,390 1425,391 1426,391 1427,392 1427,393 1426,394 1425,394 1423,392 1423,390 1422,390 1421,389 1422,388 1424,388 1423,388 1421,386 1421,385 1423,383 1425,385 1425,386 1426,387 1426,388 1429,391 1431,391 1432,392 1434,392 1435,393 1434,394 1431,394 1430,395 1430,396 1431,397 1436,397 1437,396 1438,397 1455,397 1456,398 1456,400 1457,401 1457,404 1458,405 1458,430 1457,431 1457,435 1455,437 1427,437 1426,436 1425,436 1424,435 1424,436 1426,436 1427,437 1456,437 1456,436 1457,435 1457,431 1458,430 1458,405 1457,404 1457,400 1456,399 1456,397 1438,397 1437,396 1436,397 1431,397 1430,396 1430,395 1431,394 1450,394 1450,392 1432,392 1431,391 1429,391 1427,389 1427,388 1425,386 1425,385 1424,384 1424,383 1422,383 1421,384 1421,386 1422,387 1422,388 1421,389 1419,387 1419,380 1420,379 1420,376 1419,375 1419,374 1418,373 1418,370 1419,369 1419,332 1418,331 1418,330 1420,328 1434,328 1435,329 1438,329 1439,328 1447,328 1448,329 1449,328 1457,328 1457,292 1456,291 1417,291 1416,290 1417,289 1419,289 Z" fill="black" stroke="none" /><path d="M 1671,286 1671,290 1671,288 1672,287 1673,288 1673,291 1672,292 1672,293 1671,294 1671,299 1672,300 1672,301 1673,301 1674,300 1674,296 1675,295 1676,295 1675,295 1674,296 1674,300 1673,301 1671,299 1671,294 1673,292 1673,286 1672,287 Z" fill="black" stroke="none" /><path d="M 345,286 344,287 344,288 346,288 346,286 Z" fill="black" stroke="none" /><path d="M 1423,285 1422,286 1421,286 1421,289 1453,289 1453,286 1451,286 1450,285 1449,286 1447,286 1446,285 1428,285 1427,286 1426,286 1425,285 Z" fill="black" stroke="none" /><path d="M 1324,285 1323,286 1322,286 1322,288 1323,289 1332,289 1333,288 1333,286 1332,286 1331,285 Z" fill="black" stroke="none" /><path d="M 1301,285 1300,286 1299,286 1299,289 1309,289 1310,288 1309,288 1308,289 1300,289 1299,288 1299,287 1301,285 1307,285 1308,286 1310,286 1308,286 1307,285 Z" fill="black" stroke="none" /><path d="M 1170,285 1169,286 1168,286 1168,289 1177,289 1178,288 1177,288 1176,289 1169,289 1168,288 1168,287 1170,285 1174,285 1175,286 1178,286 1176,286 1175,285 Z" fill="black" stroke="none" /><path d="M 1149,285 1148,286 1146,286 1149,286 1150,285 1151,285 1154,288 1153,289 1148,289 1147,288 1148,289 1153,289 1154,288 1153,287 1153,286 1152,285 Z" fill="black" stroke="none" /><path d="M 996,285 995,286 993,286 995,286 996,285 1004,285 1005,286 1005,288 1004,289 995,289 994,288 995,289 1005,289 1005,287 1006,286 1007,286 1008,287 1010,285 1018,285 1019,286 1019,288 1018,289 1007,289 1020,289 1019,288 1019,287 1021,285 1023,287 1023,288 1022,289 1023,289 1023,286 1022,286 1021,285 1020,286 1019,286 1018,285 1009,285 1008,286 1005,286 1004,285 Z" fill="black" stroke="none" /><path d="M 775,285 774,286 773,286 773,289 780,289 781,288 781,287 779,285 Z" fill="black" stroke="none" /><path d="M 539,285 539,286 540,287 538,289 537,289 536,290 535,290 533,292 532,292 531,293 529,293 528,294 527,294 525,296 523,296 522,297 521,297 519,299 516,299 515,300 514,300 515,300 516,299 519,299 520,298 521,298 522,297 523,297 524,296 525,296 526,295 527,295 528,294 529,294 530,293 531,293 532,292 534,292 537,289 539,289 541,287 542,287 544,285 545,285 543,285 541,287 540,287 539,286 Z" fill="black" stroke="none" /><path d="M 1597,282 1596,283 1596,285 1598,285 1598,283 Z" fill="black" stroke="none" /><path d="M 557,281 557,282 556,283 558,285 558,286 559,287 559,288 557,290 555,288 557,290 555,292 553,292 552,291 550,291 550,294 551,295 555,295 556,296 556,297 555,298 554,297 553,297 554,298 555,298 556,297 557,298 559,298 558,298 556,296 558,294 559,294 560,295 560,296 561,297 561,298 569,298 569,297 570,296 572,296 573,297 573,298 572,299 571,299 572,300 571,301 576,301 578,303 578,305 581,305 582,304 584,304 585,305 585,306 584,307 585,308 587,308 588,309 588,310 591,313 591,314 593,314 594,315 594,318 597,318 598,319 598,321 597,322 597,326 596,327 596,331 595,332 595,333 593,335 593,336 587,342 586,342 582,346 581,346 577,350 575,350 574,351 573,351 570,354 568,354 567,355 566,355 564,357 562,357 561,358 560,358 558,360 557,360 556,361 555,361 552,364 550,364 549,365 548,365 546,367 545,367 544,368 545,367 547,367 549,365 550,365 551,364 552,364 553,363 554,363 557,360 559,360 561,358 562,358 563,357 565,357 567,355 568,355 569,354 570,354 571,353 572,353 574,351 575,351 576,350 577,350 578,349 579,349 582,346 583,346 587,342 588,342 589,341 589,340 590,339 591,339 593,337 593,336 595,334 595,333 596,332 596,327 597,326 597,322 598,321 598,320 599,319 600,319 601,320 601,321 602,322 602,325 601,326 601,330 600,331 602,329 604,329 602,329 601,328 601,326 602,325 602,322 601,321 601,319 598,319 597,318 597,317 596,318 595,318 594,317 594,316 595,315 594,314 593,314 592,313 592,312 590,312 588,310 588,308 586,308 585,307 585,304 582,304 581,305 579,305 578,304 578,303 577,302 577,301 573,301 572,300 573,299 574,299 573,298 574,297 573,296 569,296 569,297 568,298 562,298 561,297 562,296 564,296 565,295 566,295 565,294 566,293 564,293 563,292 562,293 559,293 557,295 552,295 550,293 550,292 551,291 552,291 553,292 556,292 559,289 559,286 557,284 557,282 558,281 559,282 559,283 559,281 Z" fill="black" stroke="none" /><path d="M 1667,278 1667,281 1668,282 1670,282 1670,279 1669,278 Z" fill="black" stroke="none" /><path d="M 396,278 397,279 395,281 394,281 393,282 391,282 390,283 389,283 387,285 384,285 383,286 382,285 383,286 382,287 381,287 380,288 379,288 378,289 377,289 376,290 375,290 374,291 373,291 372,292 370,292 368,294 367,294 365,296 363,296 362,295 363,296 361,298 360,298 358,300 356,300 354,302 353,302 352,303 351,303 349,305 348,305 347,306 346,306 342,310 341,310 339,312 338,312 336,314 335,314 332,317 331,317 325,323 326,323 326,322 327,321 328,321 332,317 333,317 336,314 337,314 339,312 340,312 343,309 344,309 347,306 348,306 349,305 350,305 352,303 353,303 354,302 355,302 357,300 358,300 359,299 360,299 361,298 362,298 364,296 365,296 366,295 367,295 368,294 369,294 369,293 370,292 373,292 374,291 375,291 377,289 379,289 380,288 381,288 382,287 383,287 383,286 384,285 388,285 391,282 394,282 397,279 400,279 401,278 402,278 401,278 400,279 397,279 Z" fill="black" stroke="none" /><path d="M 358,272 357,273 357,274 356,275 355,275 354,276 353,276 353,278 354,278 355,279 355,280 354,281 353,281 352,282 352,283 351,284 350,284 349,283 350,282 350,279 348,279 348,280 346,282 345,282 341,286 340,286 340,287 338,289 337,289 337,290 333,294 333,295 329,299 327,299 327,300 323,304 323,305 321,307 321,309 323,309 323,308 324,307 325,307 326,308 326,310 324,312 323,311 322,312 322,313 321,314 320,314 319,313 317,313 316,314 316,315 313,318 313,319 314,320 315,320 316,319 315,320 314,320 313,319 313,318 316,315 316,314 317,313 319,313 320,314 318,316 318,318 319,319 319,320 318,321 317,321 316,322 315,322 315,327 314,328 313,327 313,324 311,324 311,326 310,327 310,328 311,329 311,330 312,331 312,332 311,333 312,334 312,357 311,358 311,359 310,360 310,364 312,364 313,363 313,360 312,360 311,359 311,358 312,357 313,358 312,357 312,334 311,333 312,332 312,330 314,328 315,328 315,326 316,325 318,325 319,324 318,325 316,325 315,324 315,323 317,321 318,321 319,320 319,319 318,318 318,316 320,314 321,314 322,313 322,312 323,311 324,312 326,310 326,309 327,308 328,308 326,308 325,307 324,307 322,309 321,308 321,307 323,305 323,304 325,302 326,302 326,301 328,299 329,299 333,295 334,296 336,296 334,296 333,295 333,294 335,292 336,292 336,291 342,285 343,285 343,284 345,282 346,282 347,283 346,282 349,279 350,280 350,282 349,283 349,284 352,284 352,282 353,281 354,281 355,280 355,279 353,277 355,275 356,275 357,274 357,273 358,272 361,272 362,273 361,274 360,274 358,276 358,278 359,278 360,277 362,277 362,276 364,274 366,274 367,273 367,272 367,273 366,274 363,274 361,272 Z" fill="black" stroke="none" /><path d="M 462,271 461,272 458,272 457,273 456,273 455,274 454,274 453,275 449,275 448,276 447,276 446,277 445,277 444,278 443,278 442,279 439,279 438,280 437,280 436,281 435,281 434,282 432,282 431,283 429,283 427,285 424,285 423,286 422,286 421,287 420,287 419,288 418,288 417,289 415,289 414,290 413,290 412,291 411,291 410,292 408,292 407,293 405,293 403,295 401,295 400,296 399,296 398,297 397,297 396,298 394,298 393,299 391,299 390,300 389,300 387,302 386,302 385,303 382,303 380,305 379,305 378,306 377,306 376,307 375,307 372,310 368,310 365,313 363,313 362,314 361,314 359,316 358,316 357,317 355,317 352,320 350,320 349,321 348,321 345,324 344,324 342,326 341,326 340,327 339,327 337,329 336,329 334,331 333,331 326,338 327,337 328,337 328,336 329,335 330,335 335,330 336,330 337,329 338,329 340,327 341,327 342,326 343,326 346,323 347,323 349,321 350,321 351,320 352,320 353,319 354,319 356,317 357,317 358,316 360,316 363,313 365,313 366,312 367,312 369,310 372,310 373,309 374,309 377,306 379,306 380,305 381,305 383,303 385,303 386,302 387,302 388,301 389,301 390,300 392,300 393,299 394,299 395,298 397,298 398,297 399,297 401,295 404,295 406,293 407,293 408,292 411,292 412,291 413,291 415,289 418,289 419,288 420,288 421,287 422,287 424,285 428,285 430,283 431,283 432,282 436,282 439,279 442,279 443,278 445,278 446,277 447,277 449,275 454,275 456,273 457,273 458,272 462,272 463,271 Z" fill="black" stroke="none" /><path d="M 1665,267 1664,268 1665,267 1667,269 1667,271 1666,272 1665,272 1664,271 1664,272 1666,272 1667,271 1667,269 Z" fill="black" stroke="none" /><path d="M 1603,265 1602,266 1602,267 1603,268 1604,268 1605,267 1605,265 Z" fill="black" stroke="none" /><path d="M 540,265 537,268 534,268 531,271 530,271 529,272 527,272 526,273 524,273 522,275 520,275 519,276 517,276 515,278 514,278 513,279 509,279 508,280 507,280 505,282 503,282 502,283 499,283 503,283 504,282 505,282 507,280 508,280 509,279 510,280 511,280 512,279 513,279 514,278 516,278 518,276 519,276 520,275 523,275 525,273 526,273 527,272 529,272 530,271 531,271 534,268 537,268 538,269 537,268 540,265 542,265 Z" fill="black" stroke="none" /><path d="M 1375,261 1374,262 1374,311 1372,313 1371,313 1371,317 1372,318 1372,319 1374,321 1374,389 1376,389 1376,388 1377,387 1377,263 1376,262 1376,261 Z" fill="black" stroke="none" /><path d="M 537,261 536,262 534,262 532,264 531,264 530,265 529,265 528,266 526,266 525,267 524,267 523,268 520,268 518,270 517,270 517,271 516,272 512,272 511,273 510,273 510,274 512,272 516,272 518,270 519,270 519,269 520,268 524,268 525,267 526,267 527,266 528,266 529,265 531,265 532,264 533,264 535,262 537,262 538,261 539,261 Z" fill="black" stroke="none" /><path d="M 1609,258 Z" fill="black" stroke="none" /><path d="M 1379,257 1379,260 1378,261 1379,262 1379,394 1378,395 1378,396 1377,397 1378,398 1380,398 1380,396 1381,395 1382,396 1382,400 1381,401 1381,402 1380,403 1381,404 1381,405 1383,405 1384,404 1385,404 1386,405 1386,407 1384,409 1384,411 1385,412 1386,412 1388,414 1390,414 1393,417 1394,417 1396,419 1396,420 1397,420 1399,422 1399,423 1400,423 1402,425 1401,426 1401,428 1402,428 1404,430 1404,431 1405,432 1405,431 1404,430 1405,429 1406,429 1407,430 1407,431 1407,430 1405,428 1406,427 1407,427 1410,430 1412,430 1413,431 1413,432 1412,433 1412,435 1414,435 1416,433 1417,434 1422,434 1418,434 1417,433 1415,433 1413,435 1412,434 1412,433 1413,432 1413,431 1412,430 1411,430 1409,428 1408,428 1407,427 1405,427 1405,429 1404,430 1401,427 1402,426 1402,424 1401,424 1398,421 1398,420 1397,420 1391,414 1388,414 1386,412 1387,411 1387,410 1388,409 1389,410 1389,411 1389,409 1388,409 1387,410 1387,411 1386,412 1384,410 1385,409 1385,408 1386,407 1386,405 1385,404 1384,404 1383,405 1382,405 1380,403 1381,402 1381,401 1382,400 1382,392 1382,394 1380,396 1379,395 1379,262 1378,261 1379,260 1379,258 1380,257 1383,257 Z" fill="black" stroke="none" /><path d="M 1388,256 1412,256 1413,257 1415,257 1417,259 1417,260 1416,261 1416,262 1416,261 1417,260 1418,261 1418,285 1419,285 1419,284 1418,283 1418,260 1416,258 1416,257 1413,257 1412,256 Z" fill="black" stroke="none" /><path d="M 1390,251 1389,252 1383,252 1383,254 1412,254 1384,254 1383,253 1384,252 1389,252 1390,251 1409,251 1410,252 1412,252 1410,252 1409,251 Z" fill="black" stroke="none" /><path d="M 563,249 562,250 562,258 563,259 565,259 566,258 566,251 565,250 565,249 Z" fill="black" stroke="none" /><path d="M 381,249 381,250 380,251 379,251 379,252 380,252 381,251 Z" fill="black" stroke="none" /><path d="M 560,247 560,275 561,276 560,277 560,278 562,280 562,282 561,283 561,284 562,283 562,279 560,277 562,275 566,275 566,272 567,271 567,270 566,269 566,264 565,263 565,261 563,261 563,262 564,261 565,262 565,263 566,264 566,269 567,270 567,271 566,272 566,274 565,275 563,275 562,274 562,265 563,264 562,264 562,275 561,276 560,275 Z" fill="black" stroke="none" /><path d="M 1609,246 1609,247 1608,248 1608,249 1609,250 1609,251 1611,253 1611,259 1610,260 1609,260 1607,262 1605,260 1605,257 1607,255 1608,256 1607,255 1605,257 1605,260 1606,261 1606,262 1607,263 1607,268 1604,271 1604,277 1601,280 1600,279 1600,278 1601,277 1601,273 1599,273 1599,278 1601,280 1601,285 1600,286 1600,287 1599,288 1598,288 1597,289 1597,296 1595,298 1594,298 1594,303 1593,304 1592,303 1592,300 1589,300 1589,301 1588,302 1588,303 1589,304 1589,305 1590,306 1590,313 1588,315 1587,315 1587,321 1587,316 1588,315 1589,315 1589,314 1590,313 1590,306 1589,305 1589,304 1588,303 1588,302 1590,300 1591,300 1592,301 1592,304 1593,305 1592,306 1594,304 1594,299 1595,298 1596,298 1596,297 1597,296 1597,290 1600,287 1600,286 1601,285 1601,280 1603,278 1604,279 1604,280 1604,279 1603,278 1604,277 1604,272 1606,270 1606,269 1607,268 1607,262 1609,260 1611,260 1611,253 1610,252 1610,251 1608,249 1608,248 1610,246 1612,246 Z" fill="black" stroke="none" /><path d="M 525,245 523,247 522,247 521,248 518,248 517,249 516,249 514,251 513,251 512,252 509,252 508,253 507,253 506,254 505,254 504,255 502,255 501,256 500,256 498,258 496,258 495,259 493,259 492,258 491,258 492,258 493,259 492,260 491,260 489,262 484,262 489,262 491,260 492,260 493,259 495,259 496,258 498,258 499,257 500,257 502,255 506,255 508,253 509,253 510,252 512,252 513,251 515,251 517,249 518,249 519,248 522,248 524,246 525,246 526,245 527,245 Z" fill="black" stroke="none" /><path d="M 513,245 511,247 510,247 509,248 506,248 505,249 504,249 502,251 501,251 500,252 497,252 495,254 494,254 493,255 490,255 489,256 487,256 485,258 482,258 481,259 480,259 481,259 482,258 486,258 488,256 490,256 491,255 494,255 495,254 496,254 498,252 500,252 501,251 503,251 506,248 510,248 513,245 520,245 Z" fill="black" stroke="none" /><path d="M 1654,240 1653,241 1653,244 1653,241 1654,240 1655,240 1656,241 1656,245 1654,247 1654,252 1655,253 1655,255 1656,256 1656,257 1657,257 1658,258 1658,264 1659,265 1660,265 1661,266 1661,272 1662,273 1662,274 1663,274 1665,276 1665,283 1666,284 1666,285 1667,285 1668,286 1668,291 1669,292 1670,292 1668,290 1668,285 1667,285 1665,283 1665,275 1664,274 1663,274 1661,272 1661,266 1663,264 1663,259 1660,259 1660,262 1660,260 1661,259 1662,259 1663,260 1663,263 1662,264 1662,265 1661,266 1658,263 1658,256 1659,255 1659,249 1658,248 1657,249 1658,248 1659,249 1659,254 1658,255 1658,256 1657,257 1655,255 1655,253 1654,252 1654,247 1655,246 1656,246 1656,240 Z" fill="black" stroke="none" /><path d="M 435,240 434,241 427,241 426,242 427,241 434,241 435,242 434,241 Z" fill="black" stroke="none" /><path d="M 556,235 557,235 558,236 558,237 558,235 Z" fill="black" stroke="none" /><path d="M 514,234 513,235 511,235 510,236 509,236 508,237 507,237 506,238 503,238 502,239 501,239 500,240 499,240 498,241 494,241 493,242 492,241 493,242 494,241 499,241 500,240 501,240 503,238 506,238 507,237 509,237 511,235 513,235 514,234 516,234 517,235 516,234 Z" fill="black" stroke="none" /><path d="M 1621,233 1620,234 1619,234 1619,235 1617,237 1616,237 1615,238 1614,237 1612,239 1612,241 1614,241 1615,240 1615,238 1616,237 1617,238 1617,241 1615,243 1614,243 1614,249 1613,250 1612,249 1612,248 1612,250 1614,250 1614,244 1615,243 1616,243 1616,242 1617,241 1617,238 1619,236 1619,235 1620,234 1621,234 1622,233 1646,233 1647,234 1647,235 1648,236 1649,236 1651,238 1651,245 1652,246 1651,245 1651,237 1650,237 1647,234 1647,233 Z" fill="black" stroke="none" /><path d="M 546,233 547,233 548,234 550,234 548,234 547,233 Z" fill="black" stroke="none" /><path d="M 1738,232 1737,233 1734,233 1734,234 1730,238 1730,430 1729,431 1728,430 1728,429 1727,428 1727,429 1728,430 1727,431 1726,431 1725,430 1725,431 1729,431 1734,436 1734,437 1740,437 1741,438 1763,438 1764,437 1770,437 1770,434 1773,431 1773,429 1774,428 1774,426 1773,425 1773,239 1770,236 1770,234 1769,233 1739,233 Z" fill="black" stroke="none" /><path d="M 686,232 685,233 684,233 684,235 683,236 683,238 682,239 682,396 683,397 683,435 685,437 686,437 687,438 688,437 720,437 724,433 724,430 725,429 724,428 724,241 725,240 724,239 724,238 723,237 723,236 720,233 716,233 715,232 714,233 690,233 689,232 688,233 687,233 Z" fill="black" stroke="none" /><path d="M 385,232 386,232 387,233 387,235 385,237 383,237 383,238 381,240 380,240 378,242 375,242 373,244 372,244 371,245 371,248 376,248 377,247 381,247 380,246 380,244 380,246 379,247 377,247 376,248 372,248 371,247 371,246 374,243 375,243 376,242 379,242 379,241 380,240 381,240 382,239 383,239 383,238 384,237 385,237 386,236 387,236 387,232 Z" fill="black" stroke="none" /><path d="M 391,228 390,229 390,232 389,233 390,233 390,232 393,229 394,229 395,228 394,228 392,230 391,230 390,229 Z" fill="black" stroke="none" /><path d="M 494,223 493,224 492,224 491,225 489,225 487,227 486,227 485,228 481,228 479,230 478,230 477,231 472,231 470,233 469,233 468,234 467,234 466,235 459,235 457,237 456,237 455,238 453,238 452,239 451,239 449,241 444,241 443,242 442,242 441,243 440,243 438,245 432,245 431,246 430,246 428,248 423,248 422,249 421,249 420,250 419,250 418,251 417,251 416,252 414,252 413,253 412,253 411,254 410,254 409,255 407,255 405,257 404,257 403,258 401,258 399,260 398,260 398,261 397,262 393,262 390,265 385,265 382,268 380,268 377,271 370,271 367,268 367,266 368,265 369,266 369,267 370,268 369,267 369,265 370,264 370,260 372,258 373,259 372,258 372,257 373,256 373,255 374,254 375,254 376,255 377,254 377,252 376,251 377,252 377,253 376,254 374,254 373,253 373,251 374,250 373,250 373,256 370,259 370,264 369,265 365,265 364,266 364,272 365,272 364,271 364,270 365,269 367,269 369,271 378,271 381,268 383,268 386,265 390,265 391,264 392,264 394,262 397,262 399,260 400,260 400,259 401,258 404,258 406,256 407,256 408,255 410,255 411,254 412,254 413,253 414,253 415,252 416,252 417,251 419,251 420,250 421,250 423,248 429,248 432,245 438,245 439,244 440,244 441,243 442,243 444,241 450,241 452,239 453,239 454,238 456,238 457,237 458,237 458,236 459,235 466,235 467,234 469,234 470,233 471,233 471,232 472,231 477,231 478,230 479,230 481,228 486,228 487,227 488,227 490,225 491,225 492,224 494,224 Z" fill="black" stroke="none" /><path d="M 522,222 520,224 519,224 518,225 515,225 512,228 507,228 506,229 505,229 503,231 499,231 498,232 497,232 495,234 493,234 492,235 488,235 486,237 485,237 484,238 480,238 479,239 478,239 476,241 472,241 471,242 469,242 467,244 466,244 465,245 461,245 460,246 459,246 457,248 452,248 451,249 450,249 448,251 446,251 445,252 443,252 442,253 440,253 440,254 439,255 434,255 433,256 432,256 430,258 427,258 426,259 425,259 424,260 423,260 421,262 417,262 416,263 415,263 413,265 411,265 410,266 408,266 407,267 406,267 405,268 404,268 403,269 400,269 397,272 394,272 393,273 392,273 391,274 390,274 389,275 388,275 387,276 385,276 382,279 379,279 378,280 377,280 375,282 374,282 373,283 371,283 369,285 367,285 366,286 365,286 362,289 361,289 360,290 358,290 355,293 353,293 351,295 350,295 348,297 347,297 345,299 344,299 343,300 342,300 339,303 338,303 335,306 334,306 333,307 333,308 331,310 330,310 328,312 327,312 329,312 332,309 333,309 333,308 335,306 336,306 339,303 340,303 343,300 344,300 345,299 346,299 349,296 350,296 351,295 352,295 354,293 355,293 356,292 357,292 359,290 361,290 363,288 364,288 367,285 370,285 372,283 373,283 374,282 376,282 378,280 379,280 380,279 382,279 383,278 384,278 386,276 387,276 388,275 390,275 391,274 392,274 394,272 397,272 398,271 399,271 401,269 403,269 404,268 406,268 407,267 408,267 409,266 410,266 411,265 413,265 414,264 415,264 416,263 417,263 418,262 421,262 422,261 423,261 424,260 425,260 427,258 431,258 433,256 434,256 435,255 439,255 441,253 443,253 444,252 445,252 446,251 449,251 451,249 452,249 453,248 458,248 460,246 461,246 462,245 465,245 466,244 467,244 468,243 469,243 470,242 471,242 472,241 477,241 479,239 481,239 482,238 484,238 485,237 486,237 487,236 488,236 489,235 492,235 493,234 495,234 496,233 497,233 499,231 503,231 504,230 505,230 506,229 507,229 508,228 512,228 513,227 514,227 516,225 518,225 519,224 521,224 522,223 Z" fill="black" stroke="none" /><path d="M 444,218 443,219 442,219 440,221 428,221 426,223 425,223 424,224 420,224 419,225 417,225 416,226 415,226 415,227 414,228 410,228 409,229 408,229 407,230 406,230 405,231 404,231 403,232 402,232 399,235 397,235 395,237 394,237 390,241 389,241 384,246 384,247 383,248 390,241 391,241 395,237 396,237 398,235 399,235 400,234 401,234 404,231 406,231 407,230 408,230 409,229 410,229 411,228 414,228 416,226 417,226 418,225 419,225 420,224 424,224 425,223 427,223 427,222 428,221 440,221 442,219 443,219 444,218 484,218 486,220 487,220 488,221 494,221 489,221 488,220 487,220 486,219 485,219 484,218 Z" fill="black" stroke="none" /><path d="M 506,216 506,217 507,218 507,220 506,221 505,221 504,220 502,220 501,219 500,219 499,218 500,217 499,218 492,218 499,218 500,219 501,219 502,220 502,221 507,221 508,220 507,219 507,217 Z" fill="black" stroke="none" /><path d="M 402,214 402,218 401,219 401,221 399,223 396,223 395,222 396,221 398,221 398,218 396,218 393,221 392,221 392,222 382,232 382,234 383,235 384,234 383,235 382,234 382,233 383,232 383,231 384,230 386,230 385,229 386,228 387,228 391,224 391,223 393,221 395,223 396,223 397,224 397,225 396,226 395,226 394,225 393,225 394,226 397,226 397,224 398,223 399,223 401,221 401,219 402,218 402,215 403,214 405,214 407,216 410,216 407,216 405,214 Z" fill="black" stroke="none" /><path d="M 414,210 416,210 417,211 417,212 416,213 415,213 414,212 412,212 414,212 415,213 416,213 417,212 417,211 416,210 Z" fill="black" stroke="none" /><path d="M 488,209 487,210 466,210 465,211 466,210 487,210 488,209 493,209 494,210 494,209 Z" fill="black" stroke="none" /><path d="M 435,209 436,209 437,210 457,210 437,210 436,209 Z" fill="black" stroke="none" /><path d="M 519,207 517,209 518,210 518,211 522,211 523,212 524,212 525,213 527,213 528,212 529,212 531,210 532,210 535,213 534,214 530,214 529,215 529,216 534,216 534,214 535,213 536,213 537,214 538,214 539,215 539,216 538,217 538,218 539,219 540,219 541,220 542,220 543,221 543,222 546,225 546,227 547,228 547,230 549,230 550,231 550,232 551,232 553,234 553,236 556,239 556,240 557,241 557,245 557,242 558,241 559,242 559,245 562,245 562,241 560,241 559,242 556,239 556,238 555,238 554,237 554,236 553,235 553,233 552,233 550,231 550,230 548,230 547,229 547,228 546,227 546,224 545,223 544,223 543,222 543,221 542,220 541,220 539,218 539,215 538,214 537,214 534,211 533,211 532,210 531,210 530,211 529,211 527,213 525,213 524,212 523,212 522,211 523,210 524,210 524,208 523,208 522,207 Z" fill="black" stroke="none" /><path d="M 414,207 410,211 409,211 408,212 408,213 409,214 410,214 409,214 408,213 408,212 409,211 410,211 414,207 417,207 419,209 421,209 420,209 419,208 418,208 417,207 Z" fill="black" stroke="none" /><path d="M 504,203 503,204 500,204 500,206 501,207 500,206 500,205 501,204 503,204 504,203 505,203 506,204 507,204 509,206 508,207 506,207 505,206 503,206 504,206 505,207 504,208 503,208 504,208 505,207 508,210 509,209 510,209 511,208 512,209 514,209 515,210 515,211 517,213 521,213 517,213 515,211 515,210 514,209 512,209 511,208 510,209 507,209 506,208 507,207 509,207 509,205 508,204 506,204 505,203 Z" fill="black" stroke="none" /><path d="M 476,200 475,201 469,201 469,203 471,203 472,204 486,204 487,205 486,206 468,206 467,205 464,205 463,206 456,206 455,205 454,205 453,206 431,206 431,207 430,208 429,207 429,205 428,204 426,204 425,203 424,204 423,204 423,205 422,206 423,207 429,207 430,208 429,209 423,209 429,209 430,208 431,208 431,207 432,206 433,206 434,207 435,206 453,206 454,205 455,205 456,206 463,206 464,205 467,205 468,206 486,206 487,205 488,205 489,206 490,206 491,205 495,205 496,206 497,206 500,209 501,209 500,209 498,207 498,206 496,206 495,205 491,205 490,206 489,206 488,205 487,205 486,204 487,203 488,203 488,201 483,201 482,200 Z" fill="black" stroke="none" /><path d="M 441,200 440,201 435,201 435,203 436,203 437,204 448,204 449,203 449,201 446,201 445,200 443,200 442,201 Z" fill="black" stroke="none" /></svg>